<?xml version="1.0" encoding="UTF-8" standalone="no"?>
<!-- Created with Inkscape (http://www.inkscape.org/) -->

<svg
   xmlns:figma="http://www.figma.com/figma/ns"
   xmlns:dc="http://purl.org/dc/elements/1.1/"
   xmlns:cc="http://creativecommons.org/ns#"
   xmlns:rdf="http://www.w3.org/1999/02/22-rdf-syntax-ns#"
   xmlns:svg="http://www.w3.org/2000/svg"
   xmlns="http://www.w3.org/2000/svg"
   xmlns:xlink="http://www.w3.org/1999/xlink"
   xmlns:sodipodi="http://sodipodi.sourceforge.net/DTD/sodipodi-0.dtd"
   xmlns:inkscape="http://www.inkscape.org/namespaces/inkscape"
   width="657.63812"
   height="500.59268"
   id="svg4186"
   version="1.1"
   inkscape:version="0.48.4 r9939"
   sodipodi:docname="jupyter.svg">
  <defs
     id="defs4188">
    <radialGradient
       id="radialGradient3085"
       xlink:href="#linearGradient10691"
       gradientUnits="userSpaceOnUse"
       cy="73.615997"
       cx="6.7027001"
       gradientTransform="matrix(1.9368,0,0,0.55337,7.018,-159.07534)"
       r="7.2284002" />
    <linearGradient
       id="linearGradient10691">
      <stop
         id="stop10693"
         offset="0" />
      <stop
         id="stop10695"
         style="stop-opacity:0"
         offset="1" />
    </linearGradient>
    <linearGradient
       id="linearGradient3080"
       y2="94.125999"
       gradientUnits="userSpaceOnUse"
       x2="320.03"
       gradientTransform="matrix(1.2308,0,0,1.0001,-373.91,-211.35154)"
       y1="85.028"
       x1="320.03">
      <stop
         id="stop3205"
         style="stop-color:#787878"
         offset="0" />
      <stop
         id="stop3207"
         style="stop-color:#bebebe"
         offset=".35047" />
      <stop
         id="stop3209"
         style="stop-color:#c8c8c8"
         offset=".55131" />
      <stop
         id="stop3211"
         style="stop-color:#e6e6e6"
         offset=".68275" />
      <stop
         id="stop3213"
         style="stop-color:#8c8c8c"
         offset="1" />
    </linearGradient>
    <linearGradient
       id="linearGradient3082"
       y2="38.126999"
       gradientUnits="userSpaceOnUse"
       x2="22.381001"
       gradientTransform="matrix(1.2353,0,0,1,-9.6465,-155.33854)"
       y1="29.027"
       x1="22.381001">
      <stop
         id="stop3217"
         style="stop-color:#505050"
         offset="0" />
      <stop
         id="stop3219"
         style="stop-color:#a0a0a0"
         offset=".35047" />
      <stop
         id="stop3221"
         style="stop-color:#aaa"
         offset=".55131" />
      <stop
         id="stop3223"
         style="stop-color:#bebebe"
         offset=".69074" />
      <stop
         id="stop3225"
         style="stop-color:#6e6e6e"
         offset="1" />
    </linearGradient>
    <radialGradient
       id="radialGradient3077"
       xlink:href="#linearGradient6602"
       gradientUnits="userSpaceOnUse"
       cy="38.640999"
       cx="24"
       gradientTransform="matrix(2.286,-3.144e-8,0,0.43815,-34.903,-134.26954)"
       r="8" />
    <linearGradient
       id="linearGradient6602">
      <stop
         id="stop6604"
         style="stop-color:#fff"
         offset="0" />
      <stop
         id="stop6606"
         style="stop-color:#fff;stop-opacity:0"
         offset="1" />
    </linearGradient>
    <linearGradient
       id="linearGradient3074"
       y2="31.983"
       xlink:href="#linearGradient6544"
       gradientUnits="userSpaceOnUse"
       x2="20.104"
       gradientTransform="matrix(1.1721,0,0,1.2271,-8.1312,-164.47174)"
       y1="-0.0004971"
       x1="20.146999" />
    <linearGradient
       id="linearGradient6544">
      <stop
         id="stop6546"
         style="stop-color:#f0f0f0"
         offset="0" />
      <stop
         id="stop6548"
         style="stop-color:#d2d2d2"
         offset="1" />
    </linearGradient>
    <radialGradient
       id="radialGradient3071"
       xlink:href="#linearGradient6602"
       gradientUnits="userSpaceOnUse"
       cy="5.5643001"
       cx="1"
       gradientTransform="matrix(1.1778,0,0,0.8096,-8.2667,-157.79204)"
       r="23" />
    <linearGradient
       id="linearGradient4244">
      <stop
         id="stop4246"
         style="stop-color:#fff"
         offset="0" />
      <stop
         id="stop4248"
         style="stop-color:#fff;stop-opacity:0"
         offset="1" />
    </linearGradient>
    <radialGradient
       id="radialGradient2973"
       gradientUnits="userSpaceOnUse"
       cy="-2.0645001"
       cx="26.617001"
       gradientTransform="matrix(-1.9706e-8,-0.9032,1.5133,0,32.845,-117.28754)"
       r="23">
      <stop
         id="stop2749"
         style="stop-color:#d78ec1"
         offset="0" />
      <stop
         id="stop2751"
         style="stop-color:#c564be"
         offset=".26238" />
      <stop
         id="stop2753"
         style="stop-color:#9d3ea4"
         offset=".66094" />
      <stop
         id="stop2755"
         style="stop-color:#5e2c73"
         offset="1" />
    </radialGradient>
    <linearGradient
       id="linearGradient2975"
       y2="2.8764999"
       gradientUnits="userSpaceOnUse"
       x2="10.014"
       gradientTransform="matrix(1.0374,0,0,0.76574,-5.0171,-163.27014)"
       y1="44.959999"
       x1="10.014">
      <stop
         id="stop2759"
         style="stop-color:#650d5c"
         offset="0" />
      <stop
         id="stop2761"
         style="stop-color:#5e2c59"
         offset="1" />
    </linearGradient>
    <radialGradient
       id="radialGradient3063"
       xlink:href="#linearGradient10691"
       gradientUnits="userSpaceOnUse"
       cy="73.615997"
       cx="6.7027001"
       gradientTransform="matrix(4.1791,-3.5773e-6,4.7438e-7,0.20751,-8.0114,-122.11454)"
       r="7.2284002" />
    <linearGradient
       id="linearGradient4259">
      <stop
         id="stop4261"
         offset="0" />
      <stop
         id="stop4263"
         style="stop-opacity:0"
         offset="1" />
    </linearGradient>
    <linearGradient
       id="linearGradient4430"
       y2="416.82999"
       xlink:href="#linearGradient6544"
       gradientUnits="userSpaceOnUse"
       x2="145.44"
       gradientTransform="matrix(0.23108,0,0,0.18491,-13.6072,-183.33054)"
       y1="372.67001"
       x1="145.44" />
    <linearGradient
       id="linearGradient4266">
      <stop
         id="stop4268"
         style="stop-color:#f0f0f0"
         offset="0" />
      <stop
         id="stop4270"
         style="stop-color:#d2d2d2"
         offset="1" />
    </linearGradient>
    <linearGradient
       id="linearGradient3056"
       y2="93.916"
       gradientUnits="userSpaceOnUse"
       x2="319.39001"
       gradientTransform="matrix(1.1429,0,0,0.93704,-345.71,-195.86154)"
       y1="85.620003"
       x1="316.85999">
      <stop
         id="stop4576"
         style="stop-color:#282828"
         offset="0" />
      <stop
         id="stop4578"
         style="stop-color:#5a5c58"
         offset="1" />
    </linearGradient>
    <linearGradient
       id="linearGradient2995"
       y2="19.812"
       gradientUnits="userSpaceOnUse"
       x2="15.25"
       gradientTransform="matrix(1.1907,0,0,1.3504,-8.5723,-165.40554)"
       y1="8.4375"
       x1="12.938">
      <stop
         id="stop6594"
         style="stop-color:#fff;stop-opacity:.27451"
         offset="0" />
      <stop
         id="stop6596"
         style="stop-color:#fff;stop-opacity:0"
         offset="1" />
    </linearGradient>
    <radialGradient
       id="radialGradient2992"
       xlink:href="#linearGradient6602"
       gradientUnits="userSpaceOnUse"
       cy="-0.64647001"
       cx="5.9688001"
       gradientTransform="matrix(1.9085,-0.010481,0.0033084,0.69841,-13.1188,-157.27854)"
       r="20" />
    <linearGradient
       id="linearGradient4279">
      <stop
         id="stop4281"
         style="stop-color:#fff"
         offset="0" />
      <stop
         id="stop4283"
         style="stop-color:#fff;stop-opacity:0"
         offset="1" />
    </linearGradient>
    <linearGradient
       id="linearGradient4427"
       y2="86.188004"
       gradientUnits="userSpaceOnUse"
       x2="327.19"
       gradientTransform="translate(-292,-27)"
       y1="77.875"
       x1="327.19">
      <stop
         id="stop6604-5"
         style="stop-color:#fff"
         offset="0" />
      <stop
         id="stop6606-8"
         style="stop-color:#fff;stop-opacity:0"
         offset="1" />
    </linearGradient>
    <linearGradient
       y2="86.188004"
       x2="327.19"
       y1="77.875"
       x1="327.19"
       gradientTransform="translate(-304,-194.33854)"
       gradientUnits="userSpaceOnUse"
       id="linearGradient4302"
       xlink:href="#linearGradient4427"
       inkscape:collect="always" />
    <linearGradient
       id="linearGradient7010"
       y2="609.51001"
       gradientUnits="userSpaceOnUse"
       x2="302.85999"
       gradientTransform="matrix(2.7744,0,0,1.9697,-9750.0777,-10759.847)"
       y1="366.64999"
       x1="302.85999">
      <stop
         id="stop5050"
         style="stop-opacity:0"
         offset="0" />
      <stop
         id="stop5056"
         offset=".5" />
      <stop
         id="stop5052"
         style="stop-opacity:0"
         offset="1" />
    </linearGradient>
    <radialGradient
       id="radialGradient7012"
       xlink:href="#linearGradient5060"
       gradientUnits="userSpaceOnUse"
       cy="486.64999"
       cx="605.71002"
       gradientTransform="matrix(2.7744,0,0,1.9697,-9749.4777,-10759.847)"
       r="117.14" />
    <linearGradient
       id="linearGradient5060">
      <stop
         id="stop5062"
         offset="0" />
      <stop
         id="stop5064"
         style="stop-opacity:0"
         offset="1" />
    </linearGradient>
    <radialGradient
       id="radialGradient7014"
       xlink:href="#linearGradient5060"
       gradientUnits="userSpaceOnUse"
       cy="486.64999"
       cx="605.71002"
       gradientTransform="matrix(-2.7744,0,0,1.9697,-7745.1177,-10759.847)"
       r="117.14" />
    <linearGradient
       id="linearGradient4472">
      <stop
         id="stop4474"
         offset="0" />
      <stop
         id="stop4476"
         style="stop-opacity:0"
         offset="1" />
    </linearGradient>
    <linearGradient
       id="linearGradient7077"
       y2="22.861"
       xlink:href="#linearGradient6270"
       gradientUnits="userSpaceOnUse"
       x2="22.261999"
       gradientTransform="translate(-185.76022,-123.01209)"
       y1="6.8916998"
       x1="22.135" />
    <linearGradient
       id="linearGradient6270">
      <stop
         id="stop6272"
         style="stop-color:#ebebeb"
         offset="0" />
      <stop
         id="stop6274"
         style="stop-color:#bebebe"
         offset="1" />
    </linearGradient>
    <linearGradient
       id="linearGradient7072"
       y2="45"
       xlink:href="#linearGradient6270"
       gradientUnits="userSpaceOnUse"
       x2="26.75"
       gradientTransform="matrix(0.99667,0,0,0.98409,-185.60512,-123.54863)"
       y1="35"
       x1="26.5" />
    <linearGradient
       id="linearGradient4483">
      <stop
         id="stop4485"
         style="stop-color:#ebebeb"
         offset="0" />
      <stop
         id="stop4487"
         style="stop-color:#bebebe"
         offset="1" />
    </linearGradient>
    <linearGradient
       id="linearGradient7069"
       y2="33"
       xlink:href="#linearGradient6270"
       gradientUnits="userSpaceOnUse"
       x2="26.625"
       gradientTransform="matrix(0.99653,0,0,1.0001,-185.60178,-123.41451)"
       y1="23"
       x1="26.625" />
    <linearGradient
       id="linearGradient4490">
      <stop
         id="stop4492"
         style="stop-color:#ebebeb"
         offset="0" />
      <stop
         id="stop4494"
         style="stop-color:#bebebe"
         offset="1" />
    </linearGradient>
    <linearGradient
       id="linearGradient7064"
       y2="21"
       xlink:href="#linearGradient6270"
       gradientUnits="userSpaceOnUse"
       x2="29.125"
       gradientTransform="matrix(0.9948,0,0,1.0002,-185.59776,-122.71469)"
       y1="11"
       x1="29" />
    <linearGradient
       id="linearGradient4497">
      <stop
         id="stop4499"
         style="stop-color:#ebebeb"
         offset="0" />
      <stop
         id="stop4501"
         style="stop-color:#bebebe"
         offset="1" />
    </linearGradient>
    <linearGradient
       id="linearGradient7066"
       y2="21"
       gradientUnits="userSpaceOnUse"
       x2="24"
       gradientTransform="matrix(0.9948,0,0,1.0002,-185.59776,-122.71469)"
       y1="11"
       x1="24">
      <stop
         id="stop6370"
         style="stop-color:#a0a0a0"
         offset="0" />
      <stop
         id="stop6372"
         style="stop-color:#646464"
         offset="1" />
    </linearGradient>
    <radialGradient
       id="radialGradient7028"
       gradientUnits="userSpaceOnUse"
       cy="16.5"
       cx="6.5"
       gradientTransform="translate(-185.83971,-100.67609)"
       r="2">
      <stop
         id="stop6445"
         style="stop-color:#f7ff00"
         offset="0" />
      <stop
         id="stop6447"
         style="stop-color:#0f0"
         offset="1" />
    </radialGradient>
    <linearGradient
       id="linearGradient7099"
       y2="19.938999"
       xlink:href="#linearGradient7093"
       gradientUnits="userSpaceOnUse"
       x2="25.087999"
       gradientTransform="matrix(1.0055,0,0,0.99972,-185.85335,-124.00736)"
       y1="11.851"
       x1="25" />
    <linearGradient
       id="linearGradient7093">
      <stop
         id="stop7095"
         style="stop-color:#fff"
         offset="0" />
      <stop
         id="stop7097"
         style="stop-color:#fff;stop-opacity:0"
         offset="1" />
    </linearGradient>
    <linearGradient
       id="linearGradient7103"
       y2="19.938999"
       xlink:href="#linearGradient7093"
       gradientUnits="userSpaceOnUse"
       x2="25"
       gradientTransform="matrix(1.0073,0,0,0.99963,-185.85939,-112.63009)"
       y1="12.116"
       x1="25" />
    <linearGradient
       id="linearGradient4514">
      <stop
         id="stop4516"
         style="stop-color:#fff"
         offset="0" />
      <stop
         id="stop4518"
         style="stop-color:#fff;stop-opacity:0"
         offset="1" />
    </linearGradient>
    <linearGradient
       id="linearGradient7107"
       y2="20.205"
       xlink:href="#linearGradient7093"
       gradientUnits="userSpaceOnUse"
       x2="25"
       gradientTransform="matrix(1.0055,0,0,0.99972,-185.85335,-101.40609)"
       y1="12.028"
       x1="25" />
    <linearGradient
       id="linearGradient4521">
      <stop
         id="stop4523"
         style="stop-color:#fff"
         offset="0" />
      <stop
         id="stop4525"
         style="stop-color:#fff;stop-opacity:0"
         offset="1" />
    </linearGradient>
    <marker
       inkscape:stockid="Arrow1Lend"
       orient="auto"
       refY="0"
       refX="0"
       id="Arrow1Lend"
       style="overflow:visible">
      <path
         id="path4433"
         d="M 0,0 5,-5 -12.5,0 5,5 0,0 z"
         style="fill-rule:evenodd;stroke:#000000;stroke-width:1pt"
         transform="matrix(-0.8,0,0,-0.8,-10,0)"
         inkscape:connector-curvature="0" />
    </marker>
    <marker
       inkscape:stockid="Arrow1Lend"
       orient="auto"
       refY="0"
       refX="0"
       id="marker3061"
       style="overflow:visible">
      <path
         id="path3063"
         d="M 0,0 5,-5 -12.5,0 5,5 0,0 z"
         style="fill-rule:evenodd;stroke:#000000;stroke-width:1pt"
         transform="matrix(-0.8,0,0,-0.8,-10,0)"
         inkscape:connector-curvature="0" />
    </marker>
    <linearGradient
       id="linearGradient9515"
       inkscape:collect="always">
      <stop
         id="stop9517"
         offset="0"
         style="stop-color:#387eb8;stop-opacity:1" />
      <stop
         id="stop9519"
         offset="1"
         style="stop-color:#366994;stop-opacity:1" />
    </linearGradient>
    <linearGradient
       id="linearGradient11301"
       inkscape:collect="always">
      <stop
         id="stop11303"
         offset="0"
         style="stop-color:#ffe052;stop-opacity:1" />
      <stop
         id="stop11305"
         offset="1"
         style="stop-color:#ffc331;stop-opacity:1" />
    </linearGradient>
    <linearGradient
       gradientTransform="matrix(12.923576,0,0,8.6552835,-4863.7851,-2483.4833)"
       id="gradientFill-1"
       x1="0.7414425"
       x2="590.86261"
       y1="3.6658268"
       y2="593.78699"
       gradientUnits="userSpaceOnUse"
       spreadMethod="pad">
      <stop
         offset="0"
         stop-color="rgb(203,206,208)"
         stop-opacity="1"
         id="stop7" />
      <stop
         offset="1"
         stop-color="rgb(132,131,139)"
         stop-opacity="1"
         id="stop9" />
    </linearGradient>
    <linearGradient
       gradientTransform="matrix(10.46994,0,0,10.683654,-4863.7851,-2483.4833)"
       y2="553.44208"
       x2="703.0675"
       y1="151.4006"
       x1="301.02603"
       spreadMethod="pad"
       gradientUnits="userSpaceOnUse"
       id="linearGradient3042"
       xlink:href="#gradientFill-2"
       inkscape:collect="always" />
    <linearGradient
       id="gradientFill-2"
       x1="0"
       x2="1"
       y1="0"
       y2="1"
       gradientUnits="objectBoundingBox"
       spreadMethod="pad">
      <stop
         offset="0"
         stop-color="rgb(39,109,195)"
         stop-opacity="1"
         id="stop12" />
      <stop
         offset="1"
         stop-color="rgb(22,92,170)"
         stop-opacity="1"
         id="stop14" />
    </linearGradient>
    <linearGradient
       inkscape:collect="always"
       xlink:href="#linearGradient9515"
       id="linearGradient5047"
       gradientUnits="userSpaceOnUse"
       gradientTransform="matrix(2.4140569,0,0,2.4140569,-1173.9221,-422.62859)"
       x1="55.549179"
       y1="77.070274"
       x2="110.14919"
       y2="131.85291" />
    <linearGradient
       inkscape:collect="always"
       xlink:href="#linearGradient11301"
       id="linearGradient5049"
       gradientUnits="userSpaceOnUse"
       gradientTransform="matrix(2.4140569,0,0,2.4140569,-1173.9221,-422.62859)"
       x1="89.136749"
       y1="111.92053"
       x2="147.77737"
       y2="168.1012" />
    <marker
       inkscape:stockid="Arrow1Lend"
       orient="auto"
       refY="0"
       refX="0"
       id="Arrow1Lend-6"
       style="overflow:visible">
      <path
         id="path4433-7"
         d="M 0,0 5,-5 -12.5,0 5,5 0,0 z"
         style="fill-rule:evenodd;stroke:#000000;stroke-width:1pt"
         transform="matrix(-0.8,0,0,-0.8,-10,0)"
         inkscape:connector-curvature="0" />
    </marker>
    <marker
       inkscape:stockid="Arrow1Lend"
       orient="auto"
       refY="0"
       refX="0"
       id="Arrow1Lend-5"
       style="overflow:visible">
      <path
         id="path4433-3"
         d="M 0,0 5,-5 -12.5,0 5,5 0,0 z"
         style="fill-rule:evenodd;stroke:#000000;stroke-width:1pt"
         transform="matrix(-0.8,0,0,-0.8,-10,0)"
         inkscape:connector-curvature="0" />
    </marker>
    <marker
       inkscape:stockid="Arrow1Lend"
       orient="auto"
       refY="0"
       refX="0"
       id="Arrow1Lend-62"
       style="overflow:visible">
      <path
         id="path4433-9"
         d="M 0,0 5,-5 -12.5,0 5,5 0,0 z"
         style="fill-rule:evenodd;stroke:#000000;stroke-width:1pt"
         transform="matrix(-0.8,0,0,-0.8,-10,0)"
         inkscape:connector-curvature="0" />
    </marker>
    <marker
       inkscape:stockid="Arrow1Lend"
       orient="auto"
       refY="0"
       refX="0"
       id="Arrow1Lend-2"
       style="overflow:visible">
      <path
         id="path4433-70"
         d="M 0,0 5,-5 -12.5,0 5,5 0,0 z"
         style="fill-rule:evenodd;stroke:#000000;stroke-width:1pt"
         transform="matrix(-0.8,0,0,-0.8,-10,0)"
         inkscape:connector-curvature="0" />
    </marker>
    <marker
       inkscape:stockid="Arrow1Lend"
       orient="auto"
       refY="0"
       refX="0"
       id="Arrow1Lend-3"
       style="overflow:visible">
      <path
         id="path4433-6"
         d="M 0,0 5,-5 -12.5,0 5,5 0,0 z"
         style="fill-rule:evenodd;stroke:#000000;stroke-width:1pt"
         transform="matrix(-0.8,0,0,-0.8,-10,0)"
         inkscape:connector-curvature="0" />
    </marker>
    <path
       d="M 2.25061,4.37943 C 1.81886,4.39135 1.39322,4.27535 1.02722,4.04602 0.661224,3.81668 0.371206,3.48424 0.193641,3.09052 0.0160762,2.69679 -0.0411078,2.25935 0.0292804,1.83321 0.0996686,1.40707 0.294486,1.01125 0.589233,0.695542 0.883981,0.37983 1.2655,0.158316 1.68581,0.0588577 2.10611,-0.0406005 2.54644,-0.0135622 2.95143,0.136572 3.35641,0.286707 3.70796,0.553234 3.96186,0.902636 4.21577,1.25204 4.3607,1.66872 4.37842,2.10027 4.39529,2.6838 4.18131,3.25044 3.78293,3.67715 3.38455,4.10387 2.83392,4.35623 2.25061,4.37943 z"
       id="path11_fill"
       inkscape:connector-curvature="0" />
    <path
       d="M 7.59576,3.56656 C 7.64276,4.31992 7.46442,5.07022 7.08347,5.72186 6.70251,6.3735 6.13619,6.89698 5.45666,7.22561 4.77713,7.55424 4.01515,7.67314 3.26781,7.56716 2.52046,7.46117 1.82158,7.13511 1.26021,6.63051 0.698839,6.12591 0.300394,5.46561 0.115637,4.73375 -0.0691191,4.00188 -0.0318219,3.23159 0.222777,2.52099 0.477376,1.8104 0.93775,1.19169 1.54524,0.743685 2.15274,0.295678 2.87985,0.0386595 3.63394,0.00537589 4.12793,-0.0210471 4.62229,0.0501173 5.08878,0.214803 5.55526,0.37949 5.98473,0.63447 6.35264,0.965179 6.72055,1.29589 7.01971,1.69584 7.233,2.1422 7.4463,2.58855 7.56957,3.07256 7.59576,3.56656 l 0,0 z"
       id="path10_fill"
       inkscape:connector-curvature="0" />
    <path
       d="m 18.6962,5.89725 c 8.0127,0 15.055,2.87566 18.6963,7.12235 C 35.9796,9.19922 33.4303,5.90333 30.0877,3.57559 26.745,1.24785 22.7695,0 18.6962,0 14.623,0 10.6474,1.24785 7.30479,3.57559 3.96215,5.90333 1.41284,9.19922 0,13.0196 3.64131,8.76401 10.648,5.89725 18.6962,5.89725 z"
       id="path9_fill"
       inkscape:connector-curvature="0" />
    <path
       d="M 18.6962,7.12238 C 10.6836,7.12238 3.64131,4.24672 0,0 1.41284,3.82041 3.96215,7.1163 7.30479,9.44404 10.6474,11.7718 14.623,13.0196 18.6962,13.0196 c 4.0733,0 8.0488,-1.2478 11.3915,-3.57556 C 33.4303,7.1163 35.9796,3.82041 37.3925,0 33.7601,4.24672 26.7445,7.12238 18.6962,7.12238 z"
       id="path8_fill"
       inkscape:connector-curvature="0" />
    <path
       d="M 6.03059,2.83565 C 6.06715,3.43376 5.92485,4.02921 5.6218,4.54615 5.31875,5.0631 4.86869,5.47813 4.32893,5.73839 3.78917,5.99864 3.18416,6.09233 2.59097,6.00753 1.99778,5.92272 1.44326,5.66326 0.998048,5.26219 0.552837,4.86113 0.23709,4.33661 0.0910307,3.75546 -0.0550287,3.17431 -0.0247891,2.56283 0.177897,1.99893 0.380583,1.43503 0.746541,0.944221 1.22915,0.589037 1.71176,0.233853 2.28918,0.0303686 2.88784,0.00450543 3.28035,-0.0170932 3.67326,0.0391144 4.04396,0.169896 4.41467,0.300677 4.75587,0.503453 5.04794,0.766561 5.34,1.02967 5.57718,1.34792 5.74582,1.70301 5.91446,2.0581 6.01124,2.44303 6.03059,2.83565 l 0,0 z"
       id="path7_fill"
       inkscape:connector-curvature="0" />
    <path
       d="m 0.0534178,2.19228 c 0,-0.76565 0,-1.424474 -0.0534178,-2.029876 l 1.06836,0 0,1.273126 0.05341,0 C 1.23391,1.04259 1.4656,0.694314 1.78468,0.439049 2.10376,0.183783 2.4944,0.034196 2.90237,0.0110538 c 0.11229,-0.01473839 0.22602,-0.01473839 0.33831,0 l 0,1.1128762 C 3.10462,1.10817 2.9672,1.10817 2.83114,1.12393 2.427,1.13958 2.04237,1.30182 1.7491,1.58035 1.45583,1.85887 1.27398,2.23462 1.23751,2.63743 1.20422,2.8196 1.18635,3.00425 1.1841,3.18941 l 0,3.46326 -1.17519703,0 0,-4.45149 0.04451483,-0.0089 z"
       id="path6_fill"
       inkscape:connector-curvature="0" />
    <path
       d="M 1.17716,3.57899 C 1.153,3.88093 1.19468,4.18451 1.29933,4.46876 1.40398,4.75301 1.5691,5.01114 1.78329,5.22532 1.99747,5.43951 2.2556,5.60463 2.53985,5.70928 2.8241,5.81393 3.12768,5.85561 3.42962,5.83145 4.04033,5.84511 4.64706,5.72983 5.21021,5.49313 l 0.20477,0.8903 C 4.72393,6.66809 3.98085,6.80458 3.23375,6.78406 2.79821,6.81388 2.36138,6.74914 1.95322,6.59427 1.54505,6.43941 1.17522,6.19809 0.869071,5.88688 0.562928,5.57566 0.327723,5.2019 0.179591,4.79125 0.0314584,4.38059 -0.0260962,3.94276 0.0108748,3.50777 0.0108748,1.54912 1.17716,0 3.0824,0 c 2.13671,0 2.67089,1.86962 2.67089,3.06262 0.01142,0.18382 0.01142,0.36817 0,0.55199 l -4.60283,0 0.0267,-0.03562 z M 4.66713,2.6887 C 4.70149,2.45067 4.68443,2.20805 4.61709,1.97718 4.54976,1.74631 4.43372,1.53255 4.2768,1.35031 4.11987,1.16808 3.92571,1.0216 3.70739,0.920744 3.48907,0.81989 3.25166,0.767006 3.01118,0.765656 2.52201,0.801064 2.06371,1.01788 1.72609,1.37362 1.38847,1.72935 1.19588,2.19835 1.18607,2.6887 l 3.48106,0 z"
       id="path5_fill"
       inkscape:connector-curvature="0" />
    <path
       d="m 2.19013,0 0,1.86962 1.70937,0 0,0.8903 -1.70937,0 0,3.50777 c 0,0.80127 0.23148,1.26422 0.8903,1.26422 C 3.31442,7.53574 3.54789,7.5088 3.77486,7.45179 L 3.82828,8.34208 C 3.48794,8.45999 3.12881,8.51431 2.76882,8.50234 2.53042,8.51726 2.29161,8.48043 2.06878,8.39437 1.84595,8.30831 1.64438,8.17506 1.47789,8.00377 1.11525,7.51873 0.949826,6.91431 1.01494,6.31221 l 0,-3.56119 -1.01494,0 0,-0.8903 1.03274,0 0,-1.584728 L 2.19013,0 z"
       id="path4_fill"
       inkscape:connector-curvature="0" />
    <path
       d="M 1.31764,0.0178059 2.75102,3.85499 C 2.90237,4.28233 3.06262,4.7987 3.16946,5.18153 3.2941,4.7898 3.42764,4.29123 3.5879,3.82828 l 1.29983,-3.8104741 1.25532,0 L 4.36246,4.64735 C 3.47216,6.87309 2.92908,8.02158 2.11,8.71601 1.69745,9.09283 1.19448,9.35658 0.649917,9.48166 L 0.356119,8.48453 C 0.736886,8.35942 1.09038,8.16304 1.39777,7.90584 1.8321,7.55188 2.17678,7.10044 2.4038,6.5882 2.45239,6.49949 2.48551,6.40314 2.50173,6.3033 2.49161,6.19586 2.46457,6.0907 2.42161,5.9917 L 0,0 1.29983,0 1.31764,0.0178059 z"
       id="path3_fill"
       inkscape:connector-curvature="0" />
    <path
       d="m 0.0534178,2.27264 c 0,-0.82798 0,-1.504604 -0.0534178,-2.118909 l 1.06836,0 L 1.12177,1.2666 C 1.3598,0.864535 1.70247,0.534594 2.11325,0.311954 2.52404,0.0893145 2.98754,-0.0176786 3.45435,0.00238095 c 1.58473,0 2.77773,1.32653905 2.77773,3.30299905 0,2.33258 -1.43338,3.48997 -2.9825,3.48997 C 2.85309,6.81304 2.45874,6.7281 2.10469,6.54874 1.75064,6.36937 1.44888,6.10166 1.22861,5.77151 l 0,0 0,3.56118 -1.1751922,0 0,-7.03334 0,-0.02671 z M 1.22861,4.00872 c 0.00323,0.16154 0.02111,0.32245 0.05342,0.48076 0.10101,0.39531 0.33096,0.74565 0.65345,0.99558 0.3225,0.24994 0.71913,0.3852 1.12714,0.38438 1.25532,0 1.99427,-1.02384 1.99427,-2.51064 0,-1.29983 -0.69443,-2.412704 -1.94975,-2.412704 C 2.61036,0.986777 2.14548,1.20726 1.79965,1.5662 1.45382,1.92514 1.25079,2.3979 1.22861,2.89585 l 0,1.11287 z"
       id="path2_fill"
       inkscape:connector-curvature="0" />
    <path
       d="m 5.50204,4.76309 c 0,0.66772 0,1.26422 0.05341,1.78059 l -1.05945,0 L 4.42478,5.48423 C 4.20318,5.85909 3.88627,6.16858 3.50628,6.38125 3.12628,6.59392 2.69675,6.70219 2.26135,6.69503 1.22861,6.69503 0,6.13415 0,3.84608 l 0,-3.8015651 1.193,0 0,3.5611851 c 0,1.23752 0.38283,2.06549 1.46009,2.06549 C 2.87472,5.67358 3.09459,5.63168 3.29982,5.54796 3.50505,5.46424 3.69149,5.34039 3.84822,5.18366 4.00494,5.02694 4.1288,4.84049 4.21252,4.63527 4.29623,4.43004 4.33813,4.21016 4.33575,3.98853 l 0,-3.98853 1.19299,0 0,4.72748 -0.0267,0.03561 z"
       id="path1_fill"
       inkscape:connector-curvature="0" />
    <path
       d="m 1.74498,5.47533 c 0,1.55802 -0.12464,2.06549 -0.44515,2.43941 C 0.943119,8.23595 0.480024,8.41358 0,8.41331 L 0.124642,9.3036 C 0.86884,9.31366 1.59095,9.05078 2.15452,8.56466 2.45775,8.19487 2.6834,7.76781 2.818,7.30893 2.95261,6.85005 2.99341,6.36876 2.93798,5.89377 l 0,-5.89377 -1.193,0 0,5.43972 0,0.03561 z"
       id="path0_fill"
       inkscape:connector-curvature="0" />
    <linearGradient
       id="linearGradient2456"
       y2="609.51001"
       gradientUnits="userSpaceOnUse"
       x2="302.85999"
       gradientTransform="matrix(0.067325,0,0,0.0147,-467.39274,-402.55258)"
       y1="366.64999"
       x1="302.85999">
      <stop
         id="stop5050-1"
         style="stop-opacity:0"
         offset="0" />
      <stop
         id="stop5056-2"
         offset=".5" />
      <stop
         id="stop5052-2"
         style="stop-opacity:0"
         offset="1" />
    </linearGradient>
    <radialGradient
       id="radialGradient2453"
       xlink:href="#linearGradient5060-1"
       gradientUnits="userSpaceOnUse"
       cy="486.64999"
       cx="605.71002"
       gradientTransform="matrix(-0.02304,0,0,0.0147,-445.4286,-402.55258)"
       r="117.14" />
    <linearGradient
       id="linearGradient5060-1">
      <stop
         id="stop5062-5"
         offset="0" />
      <stop
         id="stop5064-0"
         style="stop-opacity:0"
         offset="1" />
    </linearGradient>
    <radialGradient
       id="radialGradient2450"
       xlink:href="#linearGradient5060-1"
       gradientUnits="userSpaceOnUse"
       cy="486.64999"
       cx="605.71002"
       gradientTransform="matrix(0.02304,0,0,0.0147,-440.6906,-402.55258)"
       r="117.14" />
    <linearGradient
       id="linearGradient3056-9">
      <stop
         id="stop3058"
         offset="0" />
      <stop
         id="stop3060"
         style="stop-opacity:0"
         offset="1" />
    </linearGradient>
    <linearGradient
       id="linearGradient2445"
       y2="47.013"
       gradientUnits="userSpaceOnUse"
       x2="25.132"
       gradientTransform="matrix(1,0,0,0.95617,-467.0516,-441.50748)"
       y1="0.98521"
       x1="25.132">
      <stop
         id="stop3602"
         style="stop-color:#f4f4f4"
         offset="0" />
      <stop
         id="stop3604"
         style="stop-color:#dbdbdb"
         offset="1" />
    </linearGradient>
    <linearGradient
       id="linearGradient2447"
       y2="2.9061999"
       gradientUnits="userSpaceOnUse"
       x2="-51.785999"
       gradientTransform="matrix(0.8075,0,0,0.89483,-407.6416,-442.57318)"
       y1="50.785999"
       x1="-51.785999">
      <stop
         id="stop3106"
         style="stop-color:#aaa"
         offset="0" />
      <stop
         id="stop3108"
         style="stop-color:#c8c8c8"
         offset="1" />
    </linearGradient>
    <radialGradient
       id="radialGradient2442"
       gradientUnits="userSpaceOnUse"
       cy="112.3"
       cx="102"
       gradientTransform="matrix(0.3617,0,0,-0.39078,-466.20054,-392.07558)"
       r="139.56">
      <stop
         id="stop41"
         style="stop-color:#b7b8b9"
         offset="0" />
      <stop
         id="stop47"
         style="stop-color:#ececec"
         offset=".18851" />
      <stop
         id="stop49"
         style="stop-color:#fafafa;stop-opacity:0"
         offset=".25718" />
      <stop
         id="stop51"
         style="stop-color:#fff;stop-opacity:0"
         offset=".30111" />
      <stop
         id="stop53"
         style="stop-color:#fafafa;stop-opacity:0"
         offset=".53130" />
      <stop
         id="stop55"
         style="stop-color:#ebecec;stop-opacity:0"
         offset=".84490" />
      <stop
         id="stop57"
         style="stop-color:#e1e2e3;stop-opacity:0"
         offset="1" />
    </radialGradient>
    <linearGradient
       id="linearGradient2439"
       y2="46.016998"
       gradientUnits="userSpaceOnUse"
       x2="24"
       gradientTransform="matrix(1,0,0,0.97778,-467.0516,-440.55925)"
       y1="2"
       x1="24">
      <stop
         id="stop3213-0"
         style="stop-color:#fff"
         offset="0" />
      <stop
         id="stop3215"
         style="stop-color:#fff;stop-opacity:0"
         offset="1" />
    </linearGradient>
    <linearGradient
       id="linearGradient2436"
       y2="9.2625999"
       gradientUnits="userSpaceOnUse"
       x2="22.104"
       gradientTransform="matrix(0.99461,0,0,1.4408,-467.4275,-452.45558)"
       y1="39.699001"
       x1="22.104">
      <stop
         id="stop4340"
         style="stop-color:#8e8e8e"
         offset="0" />
      <stop
         id="stop4342"
         style="stop-color:#b5b5b5"
         offset="1" />
    </linearGradient>
    <filter
       id="filter3248"
       height="1.3286999"
       width="1.2969"
       color-interpolation-filters="sRGB"
       y="-0.16434"
       x="-0.14846">
      <feGaussianBlur
         id="feGaussianBlur3250"
         stdDeviation="0.77391625" />
    </filter>
    <linearGradient
       id="linearGradient2432"
       y2="5.4565001"
       gradientUnits="userSpaceOnUse"
       x2="36.358002"
       gradientTransform="matrix(0.9977,0,0,1.0407,0.1638,-1.1058)"
       y1="8.059"
       x1="32.891998">
      <stop
         id="stop8591"
         style="stop-color:#fefefe"
         offset="0" />
      <stop
         id="stop8593"
         style="stop-color:#cbcbcb"
         offset="1" />
    </linearGradient>
    <linearGradient
       y2="5.4565001"
       x2="36.358002"
       y1="8.059"
       x1="32.891998"
       gradientTransform="matrix(0.9977,0,0,1.0407,-466.8878,-440.69838)"
       gradientUnits="userSpaceOnUse"
       id="linearGradient3097"
       xlink:href="#linearGradient2432"
       inkscape:collect="always" />
    <marker
       inkscape:stockid="Arrow1Lend"
       orient="auto"
       refY="0"
       refX="0"
       id="Arrow1Lend-4"
       style="overflow:visible">
      <path
         id="path4433-0"
         d="M 0,0 5,-5 -12.5,0 5,5 0,0 z"
         style="fill-rule:evenodd;stroke:#000000;stroke-width:1pt"
         transform="matrix(-0.8,0,0,-0.8,-10,0)"
         inkscape:connector-curvature="0" />
    </marker>
    <marker
       inkscape:stockid="Arrow1Lend"
       orient="auto"
       refY="0"
       refX="0"
       id="Arrow1Lend-41"
       style="overflow:visible">
      <path
         id="path4433-1"
         d="M 0,0 5,-5 -12.5,0 5,5 0,0 z"
         style="fill-rule:evenodd;stroke:#000000;stroke-width:1pt"
         transform="matrix(-0.8,0,0,-0.8,-10,0)"
         inkscape:connector-curvature="0" />
    </marker>
  </defs>
  <sodipodi:namedview
     id="base"
     pagecolor="#ffffff"
     bordercolor="#666666"
     borderopacity="1.0"
     inkscape:pageopacity="0.0"
     inkscape:pageshadow="2"
     inkscape:zoom="0.98994949"
     inkscape:cx="524.94525"
     inkscape:cy="200.74201"
     inkscape:document-units="px"
     inkscape:current-layer="layer1"
     showgrid="true"
     inkscape:window-width="1920"
     inkscape:window-height="1008"
     inkscape:window-x="0"
     inkscape:window-y="33"
     inkscape:window-maximized="1"
     inkscape:snap-global="true"
     showguides="false"
     fit-margin-top="15"
     fit-margin-right="15"
     fit-margin-bottom="15"
     fit-margin-left="15">
    <inkscape:grid
       type="xygrid"
       id="grid5890"
       empspacing="5"
       visible="true"
       enabled="true"
       snapvisiblegridlinesonly="true"
       originx="-45.285714px"
       originy="-410.8173px" />
  </sodipodi:namedview>
  <metadata
     id="metadata4191">
    <rdf:RDF>
      <cc:Work
         rdf:about="">
        <dc:format>image/svg+xml</dc:format>
        <dc:type
           rdf:resource="http://purl.org/dc/dcmitype/StillImage" />
        <dc:title></dc:title>
      </cc:Work>
    </rdf:RDF>
  </metadata>
  <g
     inkscape:label="Layer 1"
     inkscape:groupmode="layer"
     id="layer1"
     transform="translate(-45.285714,-140.95221)">
    <g
       transform="translate(57.285714,308.29075)"
       id="g4194">
      <path
         inkscape:connector-curvature="0"
         d="m 46,49 c 0,2.2091 -6.268,4 -14,4 -7.732,0 -14,-1.791 -14,-4 0,-2.209 6.268,-4 14,-4 7.732,0 14,1.791 14,4 z"
         style="opacity:0.5;fill:url(#radialGradient3085)"
         id="path2589" />
      <path
         inkscape:connector-curvature="0"
         d="M 25.5,38.499 V 45.5 c -0.0272,1.8022 -2.6162,3.0004 -2.6162,3.0004 -0.9248,0.08844 -1.3847,0.44607 -1.3847,1.0002 0,0.55408 0.62259,1.0001 1.3847,1.0001 h 18.232 c 0.7621,0 1.3847,-0.44606 1.3847,-1.0001 0,-0.55408 -0.45989,-0.91171 -1.3847,-1.0002 0,0 -2.589,-1.1982 -2.6162,-3.0004 v -7.001 h -13 z"
         style="fill:url(#linearGradient3080);stroke:url(#linearGradient3082);stroke-width:0.99826998;stroke-linecap:round;stroke-linejoin:round;stroke-dashoffset:0.5;enable-background:new"
         id="path4675" />
      <rect
         x="21.959999"
         y="49"
         width="20.002001"
         height="1"
         ry="0.5"
         rx="0.44444001"
         style="opacity:0.8;fill:url(#radialGradient3077);enable-background:new"
         id="rect4703" />
      <rect
         x="4.5"
         y="3.5"
         width="55"
         height="38"
         ry="1.001"
         rx="1.0016"
         style="fill:url(#linearGradient3074);stroke:#aaaaaa;stroke-linecap:round;stroke-linejoin:round;stroke-dashoffset:0.5"
         id="rect2722" />
      <rect
         x="5.5"
         y="4.5"
         width="53"
         height="36"
         ry="0"
         rx="0"
         style="fill:none;stroke:url(#radialGradient3071);stroke-width:1.00010002;stroke-linecap:round;stroke-linejoin:round;stroke-dashoffset:0.5;enable-background:new"
         id="rect4642" />
      <rect
         x="7.5"
         y="6.5172"
         width="49.009998"
         height="31.983"
         style="color:#000000;fill:url(#radialGradient2973);fill-rule:evenodd;stroke:url(#linearGradient2975);stroke-width:1.00209999;stroke-linecap:round;stroke-linejoin:round"
         id="rect2716" />
      <path
         inkscape:connector-curvature="0"
         d="M 61,60.5 C 61,61.328 48.016,62 32,62 15.984,62 3,61.328 3,60.5 3,59.672 15.984,59 32,59 c 16.016,0 29,0.672 29,1.5 z"
         style="opacity:0.5;fill:url(#radialGradient3063)"
         id="path6096" />
      <path
         inkscape:connector-curvature="0"
         d="m 9.6795,53.499 c -1.0339,0.25979 -1.3445,1.4695 -1.9892,2.2187 -0.71315,1.0893 -1.496,2.1389 -2.1642,3.2539 -0.32463,0.97871 0.51831,1.772 1.5002,1.5308 h 50.486 c 1.2557,0.01982 1.2151,-1.6286 0.48968,-2.2635 -1.0838,-1.4934 -2.0869,-3.062 -3.2205,-4.5089 -1.0625,-0.451 -2.296,-0.13781 -3.436,-0.23097 -13.889,-7e-6 -27.778,1.3e-5 -41.666,-10e-6 z"
         style="fill:url(#linearGradient4430);stroke:#a0a0a0;stroke-width:0.99599999;stroke-linecap:square;stroke-dashoffset:0.3612;enable-background:new"
         id="path3698" />
      <path
         inkscape:connector-curvature="0"
         d="M 10.893,53.5 8,59 39,58.993 38.11573,53.5 h -27.222 v 1.41e-4 z M 39,54 l 1,2 h 6 l -1,-2 h -6 z m 7.5,0 1.5,4.9931 h 8 l -2.488,-4.993 H 46.5 z m -4.2866,3.0157 0.15913,0.87888 h -2.3725 l 0.5,1.0986 h 6.5 l -0.5,-1.0986 h -1.9937 L 44.25319,57.0157 h -2.0398 z"
         style="opacity:0.83104996;fill:#1e1e1e;fill-rule:evenodd;enable-background:new"
         id="path3702" />
      <path
         inkscape:connector-curvature="0"
         d="M 11,53 8,58 H 39 L 38,53 H 11 z m 28,2e-6 0.978,2 h 6.047 l -1.025,-2 h -6 z m 7.5,0 1.715,5 H 56 l -3,-5 h -6.5 z m -4.5,3 0.5,1 H 40 l 0.5,1 H 47 l -0.5,-1 h -2 l -0.5,-1 h -2 z"
         style="fill:url(#linearGradient3056);fill-rule:evenodd;enable-background:new"
         id="path3704" />
      <path
         inkscape:connector-curvature="0"
         d="m 6.9999,5.9841 h 50.01 v 10.803 l -50.01,9.4527 V 5.9838 z"
         style="fill:url(#linearGradient2995)"
         id="rect6588" />
      <rect
         x="8.5002003"
         y="7.5833001"
         width="47.009998"
         height="29.851"
         style="opacity:0.3;fill:none;stroke:url(#radialGradient2992);stroke-linecap:square"
         id="rect6600" />
      <path
         inkscape:connector-curvature="0"
         d="M 12.281,53 C 11.221,53.568 13.058,54.703 13,53.447 13.098,52.956 12.605,52.984 12.281,53 z m 2,0 C 13.221,53.568 15.058,54.703 15,53.447 15.098,52.956 14.605,52.984 14.281,53 z m 2,0 C 15.221,53.568 17.058,54.703 17,53.447 17.098,52.956 16.605,52.984 16.281,53 z m 2,0 C 17.221,53.568 19.058,54.703 19,53.447 19.098,52.956 18.605,52.984 18.281,53 z m 2,0 C 19.221,53.568 21.058,54.703 21,53.447 21.098,52.956 20.605,52.984 20.281,53 z m 2,0 C 21.221,53.568 23.058,54.703 23,53.447 23.098,52.956 22.605,52.984 22.281,53 z m 2,0 C 23.221,53.568 25.058,54.703 25,53.447 25.098,52.956 24.605,52.984 24.281,53 z m 2,0 C 25.221,53.568 27.058,54.703 27,53.447 27.098,52.956 26.605,52.984 26.281,53 z m 2,0 C 27.221,53.568 29.058,54.703 29,53.447 29.098,52.956 28.605,52.984 28.281,53 z m 2,0 C 29.221,53.568 31.058,54.703 31,53.447 31.098,52.956 30.605,52.984 30.281,53 z m 2,0 C 31.221,53.568 33.058,54.703 33,53.447 33.098,52.956 32.605,52.984 32.281,53 z m 2,0 C 33.221,53.568 35.058,54.703 35,53.447 35.098,52.956 34.605,52.984 34.281,53 z m 2,0 C 35.221,53.568 37.058,54.703 37,53.447 37.098,52.956 36.605,52.984 36.281,53 z m 4,0 C 39.221,53.568 41.058,54.703 41,53.447 41.098,52.956 40.605,52.984 40.281,53 z m 2,0 C 41.221,53.568 43.058,54.703 43,53.447 43.098,52.956 42.605,52.984 42.281,53 z m 2,0 C 43.221,53.568 45.058,54.703 45,53.447 45.098,52.956 44.605,52.984 44.281,53 z m -33,1 C 10.221,54.568 12.058,55.703 12,54.447 12.098,53.956 11.605,53.984 11.281,54 z m 2,0 C 12.221,54.568 14.058,55.703 14,54.447 14.098,53.956 13.605,53.984 13.281,54 z m 2,0 C 14.221,54.568 16.058,55.703 16,54.447 16.098,53.956 15.605,53.984 15.281,54 z m 2,0 C 16.221,54.568 18.058,55.703 18,54.447 18.098,53.956 17.605,53.984 17.281,54 z m 2,0 C 18.221,54.568 20.058,55.703 20,54.447 20.098,53.956 19.605,53.984 19.281,54 z m 2,0 C 20.221,54.568 22.058,55.703 22,54.447 22.098,53.956 21.605,53.984 21.281,54 z m 2,0 C 22.221,54.568 24.058,55.703 24,54.447 24.098,53.956 23.605,53.984 23.281,54 z m 2,0 C 24.221,54.568 26.058,55.703 26,54.447 26.098,53.956 25.605,53.984 25.281,54 z m 2,0 C 26.221,54.568 28.058,55.703 28,54.447 28.098,53.956 27.605,53.984 27.281,54 z m 2,0 C 28.221,54.568 30.058,55.703 30,54.447 30.098,53.956 29.605,53.984 29.281,54 z m 2,0 C 30.221,54.568 32.058,55.703 32,54.447 32.098,53.956 31.605,53.984 31.281,54 z m 2,0 C 32.221,54.568 34.058,55.703 34,54.447 34.098,53.956 33.605,53.984 33.281,54 z m 2,0 C 34.221,54.568 36.058,55.703 36,54.447 36.098,53.956 35.605,53.984 35.281,54 z m 2,0 C 36.221,54.568 38.058,55.703 38,54.447 38.098,53.956 37.605,53.984 37.281,54 z m 4,0 C 40.221,54.568 42.058,55.703 42,54.447 42.098,53.956 41.605,53.984 41.281,54 z m 2,0 C 42.221,54.568 44.058,55.703 44,54.447 44.098,53.956 43.605,53.984 43.281,54 z m 5,0 C 47.221,54.568 49.058,55.703 49,54.447 49.098,53.956 48.605,53.984 48.281,54 z m 2,0 C 49.221,54.568 51.058,55.703 51,54.447 51.098,53.956 50.605,53.984 50.281,54 z m 2,0 C 51.221,54.568 53.058,55.703 53,54.447 53.098,53.956 52.605,53.984 52.281,54 z m -42,1 C 9.2213,55.568 11.058,56.703 11,55.447 11.098,54.956 10.605,54.984 10.281,55 z m 2,0 C 11.221,55.568 13.058,56.703 13,55.447 13.098,54.956 12.605,54.984 12.281,55 z m 2,0 C 13.221,55.568 15.058,56.703 15,55.447 15.098,54.956 14.605,54.984 14.281,55 z m 2,0 C 15.221,55.568 17.058,56.703 17,55.447 17.098,54.956 16.605,54.984 16.281,55 z m 2,0 C 17.221,55.568 19.058,56.703 19,55.447 19.098,54.956 18.605,54.984 18.281,55 z m 2,0 C 19.221,55.568 21.058,56.703 21,55.447 21.098,54.956 20.605,54.984 20.281,55 z m 2,0 C 21.221,55.568 23.058,56.703 23,55.447 23.098,54.956 22.605,54.984 22.281,55 z m 2,0 C 23.221,55.568 25.058,56.703 25,55.447 25.098,54.956 24.605,54.984 24.281,55 z m 2,0 C 25.221,55.568 27.058,56.703 27,55.447 27.098,54.956 26.605,54.984 26.281,55 z m 2,0 C 27.221,55.568 29.058,56.703 29,55.447 29.098,54.956 28.605,54.984 28.281,55 z m 2,0 C 29.221,55.568 31.058,56.703 31,55.447 31.098,54.956 30.605,54.984 30.281,55 z m 2,0 C 31.221,55.568 33.058,56.703 33,55.447 33.098,54.956 32.605,54.984 32.281,55 z m 2,0 C 33.221,55.568 35.058,56.703 35,55.447 35.098,54.956 34.605,54.984 34.281,55 z m 2,0 C 35.221,55.568 37.058,56.703 37,55.447 37.098,54.956 36.605,54.984 36.281,55 z m 13,0 C 48.221,55.568 50.058,56.703 50,55.447 50.098,54.956 49.605,54.984 49.281,55 z m 2,0 C 50.221,55.568 52.058,56.703 52,55.447 52.098,54.956 51.605,54.984 51.281,55 z m 2,0 C 52.221,55.568 54.058,56.703 54,55.447 54.098,54.956 53.605,54.984 53.281,55 z m -44,1 C 8.2213,56.568 10.058,57.703 10,56.447 10.098,55.956 9.6049,55.984 9.2812,56 z m 2,0 C 10.221,56.568 12.058,57.703 12,56.447 12.098,55.956 11.605,55.984 11.281,56 z m 2,0 C 12.221,56.568 14.058,57.703 14,56.447 14.098,55.956 13.605,55.984 13.281,56 z m 2,0 C 14.221,56.568 16.058,57.703 16,56.447 16.098,55.956 15.605,55.984 15.281,56 z m 2,0 C 16.221,56.568 18.058,57.703 18,56.447 18.098,55.956 17.605,55.984 17.281,56 z m 2,0 C 18.221,56.568 20.058,57.703 20,56.447 20.098,55.956 19.605,55.984 19.281,56 z m 2,0 C 20.221,56.568 22.058,57.703 22,56.447 22.098,55.956 21.605,55.984 21.281,56 z m 2,0 C 22.221,56.568 24.058,57.703 24,56.447 24.098,55.956 23.605,55.984 23.281,56 z m 2,0 C 24.221,56.568 26.058,57.703 26,56.447 26.098,55.956 25.605,55.984 25.281,56 z m 2,0 C 26.221,56.568 28.058,57.703 28,56.447 28.098,55.956 27.605,55.984 27.281,56 z m 2,0 C 28.221,56.568 30.058,57.703 30,56.447 30.098,55.956 29.605,55.984 29.281,56 z m 2,0 C 30.221,56.568 32.058,57.703 32,56.447 32.098,55.956 31.605,55.984 31.281,56 z m 2,0 C 32.221,56.568 34.058,57.703 34,56.447 34.098,55.956 33.605,55.984 33.281,56 z m 2,0 C 34.221,56.568 36.058,57.703 36,56.447 36.098,55.956 35.605,55.984 35.281,56 z m 2,0 C 36.221,56.568 38.058,57.703 38,56.447 38.098,55.956 37.605,55.984 37.281,56 z m 11,0 C 47.221,56.568 49.058,57.703 49,56.447 49.098,55.956 48.605,55.984 48.281,56 z m 2,0 C 49.221,56.568 51.058,57.703 51,56.447 51.098,55.956 50.605,55.984 50.281,56 z m 2,0 C 51.221,56.568 53.058,57.703 53,56.447 53.098,55.956 52.605,55.984 52.281,56 z m -11,1 C 40.221,57.568 42.058,58.703 42,57.447 42.098,56.956 41.605,56.984 41.281,57 z m 2,0 C 42.221,57.568 44.058,58.703 44,57.447 44.098,56.956 43.605,56.984 43.281,57 z m 2,0 C 44.221,57.568 46.058,58.703 46,57.447 46.098,56.956 45.605,56.984 45.281,57 z"
         style="opacity:0.5;fill:url(#linearGradient4302);enable-background:new"
         id="rect4584" />
    </g>
    <g
       transform="translate(292.34681,305.8883)"
       id="g3646">
      <g
         transform="matrix(1.33,0,0,1.33,0.020007,0.555)"
         id="layer1-3">
        <g
           id="g7109">
          <g
             transform="matrix(0.02364,0,0,0.012543,45.026,42.642)"
             style="opacity:0.58730002"
             id="g5022">
            <rect
               x="-1559.3"
               y="-150.7"
               width="1339.6"
               height="478.35999"
               style="opacity:0.40206;fill:url(#linearGradient7010)"
               id="rect4173" />
            <path
               inkscape:connector-curvature="0"
               d="m -219.62,-150.68 v 478.33 c 142.87,0.90045 345.4,-107.17 345.4,-239.2 0,-132.03 -159.44,-239.13 -345.4,-239.13 z"
               style="opacity:0.40206;fill:url(#radialGradient7012)"
               id="path5058" />
            <path
               inkscape:connector-curvature="0"
               d="m -1559.3,-150.68 v 478.33 c -142.87,0.90045 -345.4,-107.17 -345.4,-239.2 0,-132.03 159.44,-239.13 345.4,-239.13 z"
               style="opacity:0.40206;fill:url(#radialGradient7014)"
               id="path5018" />
          </g>
          <path
             inkscape:connector-curvature="0"
             d="m 9.5,5.2744 h 29 L 45.4159,13.5 H 2.7519 l 6.748,-8.2256 z"
             style="fill:url(#linearGradient7077);stroke:#8c8c8c;stroke-width:0.75187999;stroke-linecap:square;stroke-linejoin:round"
             id="path6259" />
          <path
             inkscape:connector-curvature="0"
             d="m 9.5,26.5 h 29 l 6.6636,9.2524 -42.496,0.253 6.832,-9.505 z"
             style="fill:#3c3c3c;stroke:#282828;stroke-width:0.75187999;stroke-linecap:square;stroke-linejoin:round"
             id="rect6252" />
          <path
             inkscape:connector-curvature="0"
             d="m 9.5,15.5 h 29 l 6.8318,9.2524 -42.664,-0.252 6.832,-9 z"
             style="fill:#3c3c3c;stroke:#282828;stroke-width:0.75187999;stroke-linecap:square;stroke-linejoin:round"
             id="path6255" />
          <rect
             x="2.6466999"
             y="35.398998"
             width="42.856998"
             height="8.8569002"
             style="fill:url(#linearGradient7072);stroke:#646464;stroke-width:0.74462998;stroke-linecap:square;stroke-linejoin:round"
             id="rect5480" />
          <rect
             x="2.6496999"
             y="24.101"
             width="42.851002"
             height="9.0012999"
             style="fill:url(#linearGradient7069);stroke:#646464;stroke-width:0.75063002;stroke-linecap:square;stroke-linejoin:round"
             id="rect6257" />
          <rect
             x="2.6494"
             y="12.8"
             width="42.776001"
             height="9.0018997"
             style="fill:url(#linearGradient7064);stroke:url(#linearGradient7066);stroke-width:0.75;stroke-linecap:square;stroke-linejoin:round"
             id="rect6261" />
          <path
             inkscape:connector-curvature="0"
             d="m 7.9205,39.836 a 1.5,1.5 0 0 1 -3,0 1.5,1.5 0 1 1 3,0 z m 0,-11.376 a 1.5,1.5 0 0 1 -3,0 1.5,1.5 0 1 1 3,0 z M 7.9168,17.296 a 1.5,1.5 0 0 1 -3,0 1.5,1.5 0 1 1 3,0 z"
             style="fill:url(#radialGradient7028);stroke:#828282;stroke-width:0.75187999;stroke-linecap:square;stroke-linejoin:round"
             id="path6441" />
          <path
             inkscape:connector-curvature="0"
             d="m 11.385,39.586 a 1.1593,1.1593 0 0 1 -2.3185,0 1.1593,1.1593 0 1 1 2.3185,0 z M 11.30981,28.203 a 1.1593,1.1593 0 0 1 -2.3185,0 1.1593,1.1593 0 1 1 2.3185,0 z M 11.385,16.97 a 1.1593,1.1593 0 0 1 -2.3185,0 1.1593,1.1593 0 1 1 2.3185,0 z"
             style="fill:#fafafa"
             id="path6477" />
          <path
             inkscape:connector-curvature="0"
             d="m 11.385,39.934 a 1.1593,1.1593 0 0 1 -2.3185,0 1.1593,1.1593 0 1 1 2.3185,0 z M 11.30981,28.551 a 1.1593,1.1593 0 0 1 -2.3185,0 1.1593,1.1593 0 1 1 2.3185,0 z M 11.385,17.318 a 1.1593,1.1593 0 0 1 -2.3185,0 1.1593,1.1593 0 1 1 2.3185,0 z"
             style="fill:#3c3c3c"
             id="path6471" />
          <rect
             x="13.519"
             y="26.65"
             width="1.5038"
             height="1.5038"
             style="fill:#808080"
             id="rect6489" />
          <rect
             x="16.525999"
             y="26.65"
             width="1.5038"
             height="1.5038"
             style="fill:#808080"
             id="rect6491" />
          <rect
             x="19.534"
             y="26.65"
             width="1.5038"
             height="1.5038"
             style="fill:#808080"
             id="rect6493" />
          <rect
             x="13.519"
             y="37.929001"
             width="1.5038"
             height="1.5037"
             style="fill:#808080"
             id="rect6499" />
          <rect
             x="16.525999"
             y="37.929001"
             width="1.5038"
             height="1.5037"
             style="fill:#808080"
             id="rect6501" />
          <rect
             x="19.534"
             y="37.929001"
             width="1.5038"
             height="1.5038"
             style="fill:#808080"
             id="rect6503" />
          <path
             inkscape:connector-curvature="0"
             d="m 22.541,37.929 h 1.5038 v 1.5037 H 22.541 V 37.929 z m 0,-11.278 h 1.5038 v 1.5038 H 22.541 V 26.651 z m 0,-11.278 h 1.5038 v 1.5038 H 22.541 V 15.373 z m -3.0075,0 h 1.5038 v 1.5038 H 19.5335 V 15.373 z m -3.0075,0 h 1.5038 v 1.5038 H 16.526 V 15.373 z m -3.0075,0 h 1.5038 v 1.5038 H 13.5185 V 15.373 z"
             style="fill:#808080"
             id="rect6505" />
          <path
             inkscape:connector-curvature="0"
             d="m 13.519,40.936 h 10.526 v 0.75188 H 13.519 V 40.936 z m 0,-11.278 h 10.526 v 0.75188 H 13.519 V 29.658 z m 0,-11.278 h 10.526 v 0.75189 H 13.519 V 18.38 z"
             style="fill:#808080"
             id="rect6507" />
          <rect
             x="3.4258001"
             y="13.501"
             width="41.223999"
             height="6.9984999"
             style="opacity:0.8;fill:none;stroke:url(#linearGradient7099);stroke-width:0.75383002;stroke-linecap:square"
             id="rect7083" />
          <rect
             x="3.4261"
             y="24.877001"
             width="41.299"
             height="6.9977999"
             style="opacity:0.8;fill:none;stroke:url(#linearGradient7103);stroke-width:0.75446999;stroke-linecap:square"
             id="rect7101" />
          <rect
             x="3.4258001"
             y="36.102001"
             width="41.223999"
             height="6.9984999"
             style="opacity:0.8;fill:none;stroke:url(#linearGradient7107);stroke-width:0.75383002;stroke-linecap:square"
             id="rect7105" />
          <path
             inkscape:connector-curvature="0"
             d="m 43.274,18.053 c -0.276,0 -0.5,0.224 -0.5,0.5 0,0.276 0.224,0.5 0.5,0.5 0.276,0 0.5,-0.224 0.5,-0.5 0,-0.276 -0.224,-0.5 -0.5,-0.5 z m -1.5038,0 c -0.276,0 -0.5,0.224 -0.5,0.5 0,0.276 0.224,0.5 0.5,0.5 0.276,0 0.5,-0.224 0.5,-0.5 0,-0.276 -0.224,-0.5 -0.5,-0.5 z m -1.5489,0 c -0.276,0 -0.5,0.224 -0.5,0.5 0,0.276 0.224,0.5 0.5,0.5 0.276,0 0.5,-0.224 0.5,-0.5 0,-0.276 -0.224,-0.5 -0.5,-0.5 z m -1.4737,0 c -0.276,0 -0.5,0.224 -0.5,0.5 0,0.276 0.224,0.5 0.5,0.5 0.276,0 0.5,-0.224 0.5,-0.5 0,-0.276 -0.224,-0.5 -0.5,-0.5 z m -1.4737,0 c -0.276,0 -0.5,0.224 -0.5,0.5 0,0.276 0.224,0.5 0.5,0.5 0.276,0 0.5,-0.224 0.5,-0.5 0,-0.276 -0.224,-0.5 -0.5,-0.5 z m 6,-1.5038 c -0.276,0 -0.5,0.224 -0.5,0.5 0,0.276 0.224,0.5 0.5,0.5 0.276,0 0.5,-0.224 0.5,-0.5 0,-0.276 -0.224,-0.5 -0.5,-0.5 z m -1.5038,0 c -0.276,0 -0.5,0.224 -0.5,0.5 0,0.276 0.224,0.5 0.5,0.5 0.276,0 0.5,-0.224 0.5,-0.5 0,-0.276 -0.224,-0.5 -0.5,-0.5 z m -1.5489,0 c -0.276,0 -0.5,0.224 -0.5,0.5 0,0.276 0.224,0.5 0.5,0.5 0.276,0 0.5,-0.224 0.5,-0.5 0,-0.276 -0.224,-0.5 -0.5,-0.5 z m -1.4737,0 c -0.276,0 -0.5,0.224 -0.5,0.5 0,0.276 0.224,0.5 0.5,0.5 0.276,0 0.5,-0.224 0.5,-0.5 0,-0.276 -0.224,-0.5 -0.5,-0.5 z m -1.4737,0 c -0.276,0 -0.5,0.224 -0.5,0.5 0,0.276 0.224,0.5 0.5,0.5 0.276,0 0.5,-0.224 0.5,-0.5 0,-0.276 -0.224,-0.5 -0.5,-0.5 z m 6,-1.5038 c -0.276,0 -0.5,0.224 -0.5,0.5 0,0.276 0.224,0.5 0.5,0.5 0.276,0 0.5,-0.224 0.5,-0.5 0,-0.276 -0.224,-0.5 -0.5,-0.5 z m -1.5038,0 c -0.276,0 -0.5,0.224 -0.5,0.5 0,0.276 0.224,0.5 0.5,0.5 0.276,0 0.5,-0.224 0.5,-0.5 0,-0.276 -0.224,-0.5 -0.5,-0.5 z m -1.5489,0 c -0.276,0 -0.5,0.224 -0.5,0.5 0,0.276 0.224,0.5 0.5,0.5 0.276,0 0.5,-0.224 0.5,-0.5 0,-0.276 -0.224,-0.5 -0.5,-0.5 z m -1.4737,0 c -0.276,0 -0.5,0.224 -0.5,0.5 0,0.276 0.224,0.5 0.5,0.5 0.276,0 0.5,-0.224 0.5,-0.5 0,-0.276 -0.224,-0.5 -0.5,-0.5 z m -1.4737,0 c -0.276,0 -0.5,0.224 -0.5,0.5 0,0.276 0.224,0.5 0.5,0.5 0.276,0 0.5,-0.224 0.5,-0.5 0,-0.276 -0.224,-0.5 -0.5,-0.5 z m 5.9248,14.361 c -0.276,0 -0.5,0.224 -0.5,0.5 0,0.276 0.224,0.5 0.5,0.5 0.276,0 0.5,-0.224 0.5,-0.5 0,-0.276 -0.224,-0.5 -0.5,-0.5 z m -1.5038,0 c -0.276,0 -0.5,0.224 -0.5,0.5 0,0.276 0.224,0.5 0.5,0.5 0.276,0 0.5,-0.224 0.5,-0.5 0,-0.276 -0.224,-0.5 -0.5,-0.5 z m -1.5489,0 c -0.276,0 -0.5,0.224 -0.5,0.5 0,0.276 0.224,0.5 0.5,0.5 0.276,0 0.5,-0.224 0.5,-0.5 0,-0.276 -0.224,-0.5 -0.5,-0.5 z m -1.4737,0 c -0.276,0 -0.5,0.224 -0.5,0.5 0,0.276 0.224,0.5 0.5,0.5 0.276,0 0.5,-0.224 0.5,-0.5 0,-0.276 -0.224,-0.5 -0.5,-0.5 z m -1.4737,0 c -0.276,0 -0.5,0.224 -0.5,0.5 0,0.276 0.224,0.5 0.5,0.5 0.276,0 0.5,-0.224 0.5,-0.5 0,-0.276 -0.224,-0.5 -0.5,-0.5 z m 6,-1.5038 c -0.276,0 -0.5,0.224 -0.5,0.5 0,0.276 0.224,0.5 0.5,0.5 0.276,0 0.5,-0.224 0.5,-0.5 0,-0.276 -0.224,-0.5 -0.5,-0.5 z m -1.5038,0 c -0.276,0 -0.5,0.224 -0.5,0.5 0,0.276 0.224,0.5 0.5,0.5 0.276,0 0.5,-0.224 0.5,-0.5 0,-0.276 -0.224,-0.5 -0.5,-0.5 z m -1.5489,0 c -0.276,0 -0.5,0.224 -0.5,0.5 0,0.276 0.224,0.5 0.5,0.5 0.276,0 0.5,-0.224 0.5,-0.5 0,-0.276 -0.224,-0.5 -0.5,-0.5 z m -1.4737,0 c -0.276,0 -0.5,0.224 -0.5,0.5 0,0.276 0.224,0.5 0.5,0.5 0.276,0 0.5,-0.224 0.5,-0.5 0,-0.276 -0.224,-0.5 -0.5,-0.5 z m -1.4737,0 c -0.276,0 -0.5,0.224 -0.5,0.5 0,0.276 0.224,0.5 0.5,0.5 0.276,0 0.5,-0.224 0.5,-0.5 0,-0.276 -0.224,-0.5 -0.5,-0.5 z m 6,-1.5038 c -0.276,0 -0.5,0.224 -0.5,0.5 0,0.276 0.224,0.5 0.5,0.5 0.276,0 0.5,-0.224 0.5,-0.5 0,-0.276 -0.224,-0.5 -0.5,-0.5 z m -1.5038,0 c -0.276,0 -0.5,0.224 -0.5,0.5 0,0.276 0.224,0.5 0.5,0.5 0.276,0 0.5,-0.224 0.5,-0.5 0,-0.276 -0.224,-0.5 -0.5,-0.5 z m -1.5489,0 c -0.276,0 -0.5,0.224 -0.5,0.5 0,0.276 0.224,0.5 0.5,0.5 0.276,0 0.5,-0.224 0.5,-0.5 0,-0.276 -0.224,-0.5 -0.5,-0.5 z m -1.4737,0 c -0.276,0 -0.5,0.224 -0.5,0.5 0,0.276 0.224,0.5 0.5,0.5 0.276,0 0.5,-0.224 0.5,-0.5 0,-0.276 -0.224,-0.5 -0.5,-0.5 z m -1.4737,0 c -0.276,0 -0.5,0.224 -0.5,0.5 0,0.276 0.224,0.5 0.5,0.5 0.276,0 0.5,-0.224 0.5,-0.5 0,-0.276 -0.224,-0.5 -0.5,-0.5 z m 6.0752,14.286 c -0.276,0 -0.5,0.224 -0.5,0.5 0,0.276 0.224,0.5 0.5,0.5 0.276,0 0.5,-0.224 0.5,-0.5 0,-0.276 -0.224,-0.5 -0.5,-0.5 z m -1.5038,0 c -0.276,0 -0.5,0.224 -0.5,0.5 0,0.276 0.224,0.5 0.5,0.5 0.276,0 0.5,-0.224 0.5,-0.5 0,-0.276 -0.224,-0.5 -0.5,-0.5 z m -1.5489,0 c -0.276,0 -0.5,0.224 -0.5,0.5 0,0.276 0.224,0.5 0.5,0.5 0.276,0 0.5,-0.224 0.5,-0.5 0,-0.276 -0.224,-0.5 -0.5,-0.5 z m -1.4737,0 c -0.276,0 -0.5,0.224 -0.5,0.5 0,0.276 0.224,0.5 0.5,0.5 0.276,0 0.5,-0.224 0.5,-0.5 0,-0.276 -0.224,-0.5 -0.5,-0.5 z m -1.4737,0 c -0.276,0 -0.5,0.224 -0.5,0.5 0,0.276 0.224,0.5 0.5,0.5 0.276,0 0.5,-0.224 0.5,-0.5 0,-0.276 -0.224,-0.5 -0.5,-0.5 z m 6,-1.5038 c -0.276,0 -0.5,0.224 -0.5,0.5 0,0.276 0.224,0.5 0.5,0.5 0.276,0 0.5,-0.224 0.5,-0.5 0,-0.276 -0.224,-0.5 -0.5,-0.5 z m -1.5038,0 c -0.276,0 -0.5,0.224 -0.5,0.5 0,0.276 0.224,0.5 0.5,0.5 0.276,0 0.5,-0.224 0.5,-0.5 0,-0.276 -0.224,-0.5 -0.5,-0.5 z m -1.5489,0 c -0.276,0 -0.5,0.224 -0.5,0.5 0,0.276 0.224,0.5 0.5,0.5 0.276,0 0.5,-0.224 0.5,-0.5 0,-0.276 -0.224,-0.5 -0.5,-0.5 z m -1.4737,0 c -0.276,0 -0.5,0.224 -0.5,0.5 0,0.276 0.224,0.5 0.5,0.5 0.276,0 0.5,-0.224 0.5,-0.5 0,-0.276 -0.224,-0.5 -0.5,-0.5 z m -1.4737,0 c -0.276,0 -0.5,0.224 -0.5,0.5 0,0.276 0.224,0.5 0.5,0.5 0.276,0 0.5,-0.224 0.5,-0.5 0,-0.276 -0.224,-0.5 -0.5,-0.5 z m 6,-1.5038 c -0.276,0 -0.5,0.224 -0.5,0.5 0,0.276 0.224,0.5 0.5,0.5 0.276,0 0.5,-0.224 0.5,-0.5 0,-0.276 -0.224,-0.5 -0.5,-0.5 z m -1.5038,0 c -0.276,0 -0.5,0.224 -0.5,0.5 0,0.276 0.224,0.5 0.5,0.5 0.276,0 0.5,-0.224 0.5,-0.5 0,-0.276 -0.224,-0.5 -0.5,-0.5 z m -1.5489,0 c -0.276,0 -0.5,0.224 -0.5,0.5 0,0.276 0.224,0.5 0.5,0.5 0.276,0 0.5,-0.224 0.5,-0.5 0,-0.276 -0.224,-0.5 -0.5,-0.5 z m -1.4737,0 c -0.276,0 -0.5,0.224 -0.5,0.5 0,0.276 0.224,0.5 0.5,0.5 0.276,0 0.5,-0.224 0.5,-0.5 0,-0.276 -0.224,-0.5 -0.5,-0.5 z m -1.4737,0 c -0.276,0 -0.5,0.224 -0.5,0.5 0,0.276 0.224,0.5 0.5,0.5 0.276,0 0.5,-0.224 0.5,-0.5 0,-0.276 -0.224,-0.5 -0.5,-0.5 z"
             style="fill:#ffffff"
             id="path3764" />
          <path
             inkscape:connector-curvature="0"
             d="m 43.274,18.278 c -0.276,0 -0.5,0.224 -0.5,0.5 0,0.276 0.224,0.5 0.5,0.5 0.276,0 0.5,-0.224 0.5,-0.5 0,-0.276 -0.224,-0.5 -0.5,-0.5 z m -1.5038,0 c -0.276,0 -0.5,0.224 -0.5,0.5 0,0.276 0.224,0.5 0.5,0.5 0.276,0 0.5,-0.224 0.5,-0.5 0,-0.276 -0.224,-0.5 -0.5,-0.5 z m -1.5489,0 c -0.276,0 -0.5,0.224 -0.5,0.5 0,0.276 0.224,0.5 0.5,0.5 0.276,0 0.5,-0.224 0.5,-0.5 0,-0.276 -0.224,-0.5 -0.5,-0.5 z m -1.4737,0 c -0.276,0 -0.5,0.224 -0.5,0.5 0,0.276 0.224,0.5 0.5,0.5 0.276,0 0.5,-0.224 0.5,-0.5 0,-0.276 -0.224,-0.5 -0.5,-0.5 z m -1.4737,0 c -0.276,0 -0.5,0.224 -0.5,0.5 0,0.276 0.224,0.5 0.5,0.5 0.276,0 0.5,-0.224 0.5,-0.5 0,-0.276 -0.224,-0.5 -0.5,-0.5 z m 6,-1.5038 c -0.276,0 -0.5,0.224 -0.5,0.5 0,0.276 0.224,0.5 0.5,0.5 0.276,0 0.5,-0.224 0.5,-0.5 0,-0.276 -0.224,-0.5 -0.5,-0.5 z m -1.5038,0 c -0.276,0 -0.5,0.224 -0.5,0.5 0,0.276 0.224,0.5 0.5,0.5 0.276,0 0.5,-0.224 0.5,-0.5 0,-0.276 -0.224,-0.5 -0.5,-0.5 z m -1.5489,0 c -0.276,0 -0.5,0.224 -0.5,0.5 0,0.276 0.224,0.5 0.5,0.5 0.276,0 0.5,-0.224 0.5,-0.5 0,-0.276 -0.224,-0.5 -0.5,-0.5 z m -1.4737,0 c -0.276,0 -0.5,0.224 -0.5,0.5 0,0.276 0.224,0.5 0.5,0.5 0.276,0 0.5,-0.224 0.5,-0.5 0,-0.276 -0.224,-0.5 -0.5,-0.5 z m -1.4737,0 c -0.276,0 -0.5,0.224 -0.5,0.5 0,0.276 0.224,0.5 0.5,0.5 0.276,0 0.5,-0.224 0.5,-0.5 0,-0.276 -0.224,-0.5 -0.5,-0.5 z m 6,-1.5038 c -0.276,0 -0.5,0.224 -0.5,0.5 0,0.276 0.224,0.5 0.5,0.5 0.276,0 0.5,-0.224 0.5,-0.5 0,-0.276 -0.224,-0.5 -0.5,-0.5 z m -1.5038,0 c -0.276,0 -0.5,0.224 -0.5,0.5 0,0.276 0.224,0.5 0.5,0.5 0.276,0 0.5,-0.224 0.5,-0.5 0,-0.276 -0.224,-0.5 -0.5,-0.5 z m -1.5489,0 c -0.276,0 -0.5,0.224 -0.5,0.5 0,0.276 0.224,0.5 0.5,0.5 0.276,0 0.5,-0.224 0.5,-0.5 0,-0.276 -0.224,-0.5 -0.5,-0.5 z m -1.4737,0 c -0.276,0 -0.5,0.224 -0.5,0.5 0,0.276 0.224,0.5 0.5,0.5 0.276,0 0.5,-0.224 0.5,-0.5 0,-0.276 -0.224,-0.5 -0.5,-0.5 z m -1.4737,0 c -0.276,0 -0.5,0.224 -0.5,0.5 0,0.276 0.224,0.5 0.5,0.5 0.276,0 0.5,-0.224 0.5,-0.5 0,-0.276 -0.224,-0.5 -0.5,-0.5 z m 5.9248,14.361 c -0.276,0 -0.5,0.224 -0.5,0.5 0,0.276 0.224,0.5 0.5,0.5 0.276,0 0.5,-0.224 0.5,-0.5 0,-0.276 -0.224,-0.5 -0.5,-0.5 z m -1.5038,0 c -0.276,0 -0.5,0.224 -0.5,0.5 0,0.276 0.224,0.5 0.5,0.5 0.276,0 0.5,-0.224 0.5,-0.5 0,-0.276 -0.224,-0.5 -0.5,-0.5 z m -1.5489,0 c -0.276,0 -0.5,0.224 -0.5,0.5 0,0.276 0.224,0.5 0.5,0.5 0.276,0 0.5,-0.224 0.5,-0.5 0,-0.276 -0.224,-0.5 -0.5,-0.5 z m -1.4737,0 c -0.276,0 -0.5,0.224 -0.5,0.5 0,0.276 0.224,0.5 0.5,0.5 0.276,0 0.5,-0.224 0.5,-0.5 0,-0.276 -0.224,-0.5 -0.5,-0.5 z m -1.4737,0 c -0.276,0 -0.5,0.224 -0.5,0.5 0,0.276 0.224,0.5 0.5,0.5 0.276,0 0.5,-0.224 0.5,-0.5 0,-0.276 -0.224,-0.5 -0.5,-0.5 z m 6,-1.5038 c -0.276,0 -0.5,0.224 -0.5,0.5 0,0.276 0.224,0.5 0.5,0.5 0.276,0 0.5,-0.224 0.5,-0.5 0,-0.276 -0.224,-0.5 -0.5,-0.5 z m -1.5038,0 c -0.276,0 -0.5,0.224 -0.5,0.5 0,0.276 0.224,0.5 0.5,0.5 0.276,0 0.5,-0.224 0.5,-0.5 0,-0.276 -0.224,-0.5 -0.5,-0.5 z m -1.5489,0 c -0.276,0 -0.5,0.224 -0.5,0.5 0,0.276 0.224,0.5 0.5,0.5 0.276,0 0.5,-0.224 0.5,-0.5 0,-0.276 -0.224,-0.5 -0.5,-0.5 z m -1.4737,0 c -0.276,0 -0.5,0.224 -0.5,0.5 0,0.276 0.224,0.5 0.5,0.5 0.276,0 0.5,-0.224 0.5,-0.5 0,-0.276 -0.224,-0.5 -0.5,-0.5 z m -1.4737,0 c -0.276,0 -0.5,0.224 -0.5,0.5 0,0.276 0.224,0.5 0.5,0.5 0.276,0 0.5,-0.224 0.5,-0.5 0,-0.276 -0.224,-0.5 -0.5,-0.5 z m 6,-1.5038 c -0.276,0 -0.5,0.224 -0.5,0.5 0,0.276 0.224,0.5 0.5,0.5 0.276,0 0.5,-0.224 0.5,-0.5 0,-0.276 -0.224,-0.5 -0.5,-0.5 z m -1.5038,0 c -0.276,0 -0.5,0.224 -0.5,0.5 0,0.276 0.224,0.5 0.5,0.5 0.276,0 0.5,-0.224 0.5,-0.5 0,-0.276 -0.224,-0.5 -0.5,-0.5 z m -1.5489,0 c -0.276,0 -0.5,0.224 -0.5,0.5 0,0.276 0.224,0.5 0.5,0.5 0.276,0 0.5,-0.224 0.5,-0.5 0,-0.276 -0.224,-0.5 -0.5,-0.5 z m -1.4737,0 c -0.276,0 -0.5,0.224 -0.5,0.5 0,0.276 0.224,0.5 0.5,0.5 0.276,0 0.5,-0.224 0.5,-0.5 0,-0.276 -0.224,-0.5 -0.5,-0.5 z m -1.4737,0 c -0.276,0 -0.5,0.224 -0.5,0.5 0,0.276 0.224,0.5 0.5,0.5 0.276,0 0.5,-0.224 0.5,-0.5 0,-0.276 -0.224,-0.5 -0.5,-0.5 z m 6.0752,14.286 c -0.276,0 -0.5,0.224 -0.5,0.5 0,0.276 0.224,0.5 0.5,0.5 0.276,0 0.5,-0.224 0.5,-0.5 0,-0.276 -0.224,-0.5 -0.5,-0.5 z m -1.5038,0 c -0.276,0 -0.5,0.224 -0.5,0.5 0,0.276 0.224,0.5 0.5,0.5 0.276,0 0.5,-0.224 0.5,-0.5 0,-0.276 -0.224,-0.5 -0.5,-0.5 z m -1.5489,0 c -0.276,0 -0.5,0.224 -0.5,0.5 0,0.276 0.224,0.5 0.5,0.5 0.276,0 0.5,-0.224 0.5,-0.5 0,-0.276 -0.224,-0.5 -0.5,-0.5 z m -1.4737,0 c -0.276,0 -0.5,0.224 -0.5,0.5 0,0.276 0.224,0.5 0.5,0.5 0.276,0 0.5,-0.224 0.5,-0.5 0,-0.276 -0.224,-0.5 -0.5,-0.5 z m -1.4737,0 c -0.276,0 -0.5,0.224 -0.5,0.5 0,0.276 0.224,0.5 0.5,0.5 0.276,0 0.5,-0.224 0.5,-0.5 0,-0.276 -0.224,-0.5 -0.5,-0.5 z m 6,-1.5038 c -0.276,0 -0.5,0.224 -0.5,0.5 0,0.276 0.224,0.5 0.5,0.5 0.276,0 0.5,-0.224 0.5,-0.5 0,-0.276 -0.224,-0.5 -0.5,-0.5 z m -1.5038,0 c -0.276,0 -0.5,0.224 -0.5,0.5 0,0.276 0.224,0.5 0.5,0.5 0.276,0 0.5,-0.224 0.5,-0.5 0,-0.276 -0.224,-0.5 -0.5,-0.5 z m -1.5489,0 c -0.276,0 -0.5,0.224 -0.5,0.5 0,0.276 0.224,0.5 0.5,0.5 0.276,0 0.5,-0.224 0.5,-0.5 0,-0.276 -0.224,-0.5 -0.5,-0.5 z m -1.4737,0 c -0.276,0 -0.5,0.224 -0.5,0.5 0,0.276 0.224,0.5 0.5,0.5 0.276,0 0.5,-0.224 0.5,-0.5 0,-0.276 -0.224,-0.5 -0.5,-0.5 z m -1.4737,0 c -0.276,0 -0.5,0.224 -0.5,0.5 0,0.276 0.224,0.5 0.5,0.5 0.276,0 0.5,-0.224 0.5,-0.5 0,-0.276 -0.224,-0.5 -0.5,-0.5 z m 6,-1.5038 c -0.276,0 -0.5,0.224 -0.5,0.5 0,0.276 0.224,0.5 0.5,0.5 0.276,0 0.5,-0.224 0.5,-0.5 0,-0.276 -0.224,-0.5 -0.5,-0.5 z m -1.5038,0 c -0.276,0 -0.5,0.224 -0.5,0.5 0,0.276 0.224,0.5 0.5,0.5 0.276,0 0.5,-0.224 0.5,-0.5 0,-0.276 -0.224,-0.5 -0.5,-0.5 z m -1.5489,0 c -0.276,0 -0.5,0.224 -0.5,0.5 0,0.276 0.224,0.5 0.5,0.5 0.276,0 0.5,-0.224 0.5,-0.5 0,-0.276 -0.224,-0.5 -0.5,-0.5 z m -1.4737,0 c -0.276,0 -0.5,0.224 -0.5,0.5 0,0.276 0.224,0.5 0.5,0.5 0.276,0 0.5,-0.224 0.5,-0.5 0,-0.276 -0.224,-0.5 -0.5,-0.5 z m -1.4737,0 c -0.276,0 -0.5,0.224 -0.5,0.5 0,0.276 0.224,0.5 0.5,0.5 0.276,0 0.5,-0.224 0.5,-0.5 0,-0.276 -0.224,-0.5 -0.5,-0.5 z"
             style="fill:#666666"
             id="path3766" />
        </g>
      </g>
    </g>
    <g
       transform="matrix(0.0945514,0,0,0.0945514,505.16346,375.76908)"
       id="g3019">
      <path
         style="fill:url(#gradientFill-1);fill-rule:evenodd"
         inkscape:connector-curvature="0"
         id="path16"
         d="M 361.453,485.937 C 162.329,485.937 0.906,377.828 0.906,244.469 0.906,111.109 162.329,3 361.453,3 560.578,3 722,111.109 722,244.469 722,377.828 560.578,485.937 361.453,485.937 z M 416.641,97.406 c -151.352,0 -274.047,73.908 -274.047,165.078 0,91.17 122.695,165.078 274.047,165.078 151.351,0 263.046,-50.529 263.046,-165.078 0,-114.513 -111.695,-165.078 -263.046,-165.078 z" />
      <path
         style="fill:url(#linearGradient3042);fill-rule:evenodd"
         inkscape:connector-curvature="0"
         id="path18"
         d="m 550,377 c 0,0 21.822,6.585 34.5,13 4.399,2.226 12.01,6.668 17.5,12.5 5.378,5.712 8,11.5 8,11.5 L 696,559 557,559.062 492,437 c 0,0 -13.31,-22.869 -21.5,-29.5 -6.832,-5.531 -9.745,-7.5 -16.5,-7.5 -4.702,0 -33.026,0 -33.026,0 l 0.026,158.974 -123,0.052 0,-406.088 247,0 c 0,0 112.5,2.029 112.5,109.062 0,107.033 -107.5,115 -107.5,115 z m -53.5,-135.976 -74.463,-0.048 -0.037,69.05 74.5,-0.024 c 0,0 34.5,-0.107 34.5,-35.125 0,-35.722 -34.5,-33.853 -34.5,-33.853 z" />
    </g>
    <g
       id="g5035"
       transform="translate(15.999998,-48.069519)">
      <g
         transform="matrix(0.70951832,0,0,0.70951832,144.89713,112.39698)"
         id="g4823">
        <text
           xml:space="preserve"
           style="font-size:39.46339417px;font-style:normal;font-weight:normal;line-height:125%;letter-spacing:0px;word-spacing:0px;fill:#000000;fill-opacity:1;stroke:none;font-family:Sans;-inkscape-font-specification:Sans"
           x="554.11407"
           y="343.2485"
           id="text2989"
           sodipodi:linespacing="125%"><tspan
             sodipodi:role="line"
             id="tspan2991"
             x="554.11407"
             y="343.2485">Python</tspan></text>
        <g
           id="g1894"
           transform="matrix(0.58383333,0,0,0.58383333,459.09606,259.64924)">
          <path
             inkscape:connector-curvature="0"
             style="color:#000000;fill:url(#linearGradient5047);fill-opacity:1;fill-rule:nonzero;stroke:none;stroke-width:1;marker:none;visibility:visible;display:inline;overflow:visible"
             d="M 99.75,67.46875 C 71.718268,67.468752 73.46875,79.625 73.46875,79.625 L 73.5,92.21875 l 26.75,0 0,3.78125 -37.375,0 c 0,0 -17.9375,-2.034276 -17.9375,26.25 -2e-6,28.28427 15.65625,27.28125 15.65625,27.28125 l 9.34375,0 0,-13.125 c 0,0 -0.503652,-15.65625 15.40625,-15.65625 15.9099,0 26.53125,0 26.53125,0 0,0 14.90625,0.24096 14.90625,-14.40625 0,-14.647206 0,-24.21875 0,-24.21875 0,-2e-6 2.26318,-14.65625 -27.03125,-14.65625 z M 85,75.9375 c 2.661429,-2e-6 4.8125,2.151071 4.8125,4.8125 2e-6,2.661429 -2.151071,4.8125 -4.8125,4.8125 -2.661429,2e-6 -4.8125,-2.151071 -4.8125,-4.8125 -2e-6,-2.661429 2.151071,-4.8125 4.8125,-4.8125 z"
             id="path8615" />
          <path
             inkscape:connector-curvature="0"
             id="path8620"
             d="m 100.5461,177.31485 c 28.03174,0 26.28125,-12.15625 26.28125,-12.15625 l -0.0312,-12.59375 -26.75,0 0,-3.78125 37.375,0 c 0,0 17.9375,2.03427 17.9375,-26.25001 10e-6,-28.284267 -15.65625,-27.281247 -15.65625,-27.281247 l -9.34375,0 0,13.124997 c 0,0 0.50366,15.65625 -15.40625,15.65625 -15.909902,0 -26.531252,0 -26.531252,0 0,0 -14.90625,-0.24096 -14.90625,14.40626 0,14.6472 0,24.21875 0,24.21875 0,0 -2.26318,14.65625 27.031252,14.65625 z m 14.75,-8.46875 c -2.66143,0 -4.8125,-2.15107 -4.8125,-4.8125 0,-2.66143 2.15107,-4.8125 4.8125,-4.8125 2.66143,0 4.8125,2.15107 4.8125,4.8125 1e-5,2.66143 -2.15107,4.8125 -4.8125,4.8125 z"
             style="color:#000000;fill:url(#linearGradient5049);fill-opacity:1;fill-rule:nonzero;stroke:none;stroke-width:1;marker:none;visibility:visible;display:inline;overflow:visible" />
        </g>
      </g>
    </g>
    <g
       transform="matrix(0.33455032,0,0,-0.33455032,516.58087,529.72037)"
       id="g3465">
      <g
         id="g4810"
         transform="translate(-37.871642,851.35452)">
        <g
           id="g3467"
           style="fill-rule:nonzero">
          <path
             id="path3469"
             d="m 62.1133,39.5703 0,87.5664 -25.9414,-7.13672 0,-93.1172 c -6e-6,-4.90883 -0.377609,-8.21286 -1.13281,-9.91211 -0.755211,-1.6992 -1.85026,-2.5488 -3.28516,-2.54883 -0.679692,2e-5 -1.4349,0.264343 -2.26562,0.792968 -0.830727,0.528675 -1.85026,1.58596 -3.05859,3.17188 -1.05729,1.43492 -2.39778,2.8887 -4.02148,4.36133 -1.62369,1.47267 -3.79491,2.209 -6.51367,2.20898 -3.62499,1.4e-5 -6.51366,-0.906235 -8.66602,-2.71875 -2.15229,-1.8126 -3.22846,-4.0405 -3.22848,-6.6837 2e-5,-3.1719 1.9258,-5.8906 5.77734,-8.15626 3.85158,-2.26559 9.40235,-3.3984 16.6523,-3.39844 5.36197,3e-5 10.2331,0.434275 14.6133,1.30273 4.38019,0.868583 8.13735,2.58668 11.2715,5.1543 3.13408,2.56774 5.55075,6.17386 7.25,10.8184 1.69918,4.64454 2.54879,10.7428 2.54883,18.2949 z"
             inkscape:connector-curvature="0"
             style="fill:#252525" />
          <path
             id="path3471"
             d="m 98.1434,124.645 -25.8281,0 0,-59.9258 c -6e-6,-3.70053 0.774082,-7.17448 2.32226,-10.4219 1.54816,-3.2474 3.68162,-6.07943 6.40039,-8.49609 2.71873,-2.41667 5.8906,-4.32357 9.51562,-5.7207 3.62497,-1.39713 7.55205,-2.0957 11.7813,-2.0957 3.62495,10e-7 7.36323,0.86849 11.2148,2.60547 3.85151,1.73698 7.4765,4.04036 10.875,6.91016 v -7.92969 h 25.8281 v 85.0742 h -25.8281 v -61.3984 c -1.9636,-3.02084 -4.26698,-5.5319 -6.91016,-7.5332 -2.64318,-2.00131 -4.94656,-3.00196 -6.91015,-3.00195 -1.73694,-1.3e-5 -3.36063,0.32095 -4.8711,0.962891 -1.51045,0.641917 -2.83207,1.49152 -3.96484,2.54883 -1.13285,1.05727 -2.02022,2.32225 -2.66211,3.79492 -0.641963,1.47263 -0.962926,3.03968 -0.96289,4.70117 z"
             inkscape:connector-curvature="0"
             style="fill:#252525" />
          <path
             id="path3473"
             d="m 186.141,39.5703 0,126.422 -25.7148,-7.13672 0,-119.285 z"
             inkscape:connector-curvature="0"
             style="fill:#252525" />
          <path
             id="path3475"
             d="m 196.427,120 0,-80.4297 25.8281,0 0,87.5664 z"
             inkscape:connector-curvature="0"
             style="fill:#252525" />
          <path
             id="path3477"
             d="m 276.754,83.5234 0,-24.582 c -2.64327,-1.96356 -5.04106,-3.58726 -7.19335,-4.87109 -2.15239,-1.28386 -4.28585,-1.92579 -6.4004,-1.92578 -1.05732,-1.3e-5 -2.03909,0.32095 -2.94531,0.96289 -0.90628,0.641918 -1.73701,1.49153 -2.49219,2.54883 -0.75523,1.05728 -1.34052,2.32225 -1.75585,3.79492 -0.4154,1.47264 -0.62308,3.00193 -0.62305,4.58789 -3e-5,2.03903 0.6419,4.00257 1.92578,5.89062 1.28382,1.88793 2.96416,3.66267 5.04102,5.32422 2.07678,1.66142 4.38017,3.19072 6.91015,4.58789 2.5299,1.3971 5.04097,2.62431 7.5332,3.68164 z m 25.9414,-43.9531 0,63.7773 c -8e-5,3.54935 -0.67976,6.75898 -2.03906,9.62891 -1.35945,2.86971 -3.47403,5.32414 -6.34375,7.36328 -2.86986,2.03898 -6.51374,3.60603 -10.9316,4.70117 -4.41803,1.09497 -9.6856,1.6425 -15.8027,1.64258 -4.98441,-9e-5 -9.70445,-0.52874 -14.1602,-1.58594 -4.45576,-1.05737 -8.38284,-2.49226 -11.7812,-4.30468 -3.39845,-1.81259 -6.09832,-3.98381 -8.09961,-6.51368 -2.00131,-2.53001 -3.00196,-5.26764 -3.00196,-8.21289 0,-3.17194 1.13281,-5.79629 3.39844,-7.87304 2.26562,-2.07688 5.21092,-3.11528 8.83594,-3.11524 2.34112,-5.5e-5 4.28578,0.339788 5.83398,1.01953 1.54816,0.67963 2.73761,1.58588 3.56836,2.71875 0.8307,1.13275 1.41599,2.45437 1.75586,3.96485 0.33982,1.51035 0.50974,3.05853 0.50977,4.64453 -3e-5,2.7942 0.79294,5.17311 2.3789,7.13672 1.58591,1.96346 4.41794,2.94523 8.4961,2.94531 3.47392,-8e-5 6.2493,-1.13289 8.32617,-3.39844 2.07677,-2.2657 3.11518,-6.11725 3.11523,-11.5547 V 94.1718 l -2.83203,-0.679687 c -3.474,-1.05715 -6.98571,-2.17108 -10.5352,-3.3418 -3.54952,-1.17057 -6.96683,-2.45442 -10.252,-3.85156 -3.28518,-1.39718 -6.36265,-2.92647 -9.23242,-4.58789 -2.86981,-1.66149 -5.38087,-3.54951 -7.5332,-5.66406 -2.15235,-2.11461 -3.85157,-4.49352 -5.09766,-7.13672 -1.2461,-2.64325 -1.86914,-5.58856 -1.86914,-8.83594 0,-3.17189 0.58529,-6.09832 1.75586,-8.7793 1.17057,-2.68099 2.85091,-5.00326 5.04102,-6.9668 2.19009,-1.96354 4.85219,-3.51172 7.98633,-4.64453 3.13409,-1.13281 6.66468,-1.69922 10.5918,-1.69922 2.86977,-3e-6 5.36195,0.207679 7.47656,0.623046 2.11455,0.415366 4.02145,1.00065 5.72071,1.75586 1.69917,0.755211 3.22847,1.64258 4.58789,2.66211 1.35933,1.01952 2.75646,2.13345 4.1914,3.3418 v -6.79688 z"
             inkscape:connector-curvature="0"
             style="fill:#252525" />
        </g>
        <g
           id="g3479"
           stroke-miterlimit="4"
           style="stroke-width:3.0703125;stroke-linecap:butt;stroke-miterlimit:4">
          <circle
             d="m 64.841999,149.57001 c 0,8.83655 -7.163444,16 -16,16 -8.836556,0 -16,-7.16345 -16,-16 0,-8.83656 7.163444,-16 16,-16 8.836556,0 16,7.16344 16,16 z"
             id="circle3481"
             r="16"
             cy="149.57001"
             cx="48.841999"
             sodipodi:cx="48.841999"
             sodipodi:cy="149.57001"
             sodipodi:rx="16"
             sodipodi:ry="16"
             style="fill:#6682df;stroke:#4063d8" />
          <circle
             d="m 227.131,149.57001 c 0,8.83655 -7.16345,16 -16,16 -8.83656,0 -16,-7.16345 -16,-16 0,-8.83656 7.16344,-16 16,-16 8.83655,0 16,7.16344 16,16 z"
             id="circle3483"
             r="16"
             cy="149.57001"
             cx="211.131"
             sodipodi:cx="211.131"
             sodipodi:cy="149.57001"
             sodipodi:rx="16"
             sodipodi:ry="16"
             style="fill:#d5635c;stroke:#cb3c33" />
          <circle
             d="m 248.131,185.57001 c 0,8.83655 -7.16345,16 -16,16 -8.83656,0 -16,-7.16345 -16,-16 0,-8.83656 7.16344,-16 16,-16 8.83655,0 16,7.16344 16,16 z"
             id="circle3485"
             r="16"
             cy="185.57001"
             cx="232.131"
             sodipodi:cx="232.131"
             sodipodi:cy="185.57001"
             sodipodi:rx="16"
             sodipodi:ry="16"
             style="fill:#60ad51;stroke:#389826" />
          <circle
             d="m 269.131,149.57001 c 0,8.83655 -7.16345,16 -16,16 -8.83656,0 -16,-7.16345 -16,-16 0,-8.83656 7.16344,-16 16,-16 8.83655,0 16,7.16344 16,16 z"
             id="circle3487"
             r="16"
             cy="149.57001"
             cx="253.131"
             sodipodi:cx="253.131"
             sodipodi:cy="149.57001"
             sodipodi:rx="16"
             sodipodi:ry="16"
             style="fill:#aa79c1;stroke:#9558b2" />
        </g>
      </g>
    </g>
    <text
       xml:space="preserve"
       style="font-size:40px;font-style:normal;font-weight:normal;line-height:125%;letter-spacing:0px;word-spacing:0px;fill:#000000;fill-opacity:1;stroke:none;font-family:Sans;-inkscape-font-specification:Sans"
       x="502.25497"
       y="479.07648"
       id="text5031"
       sodipodi:linespacing="125%"><tspan
         sodipodi:role="line"
         x="502.25497"
         y="479.07648"
         style="font-size:28px"
         id="tspan5043">...</tspan></text>
    <path
       style="fill:none;stroke:#000000;stroke-width:1px;stroke-linecap:butt;stroke-linejoin:miter;stroke-opacity:1;marker-end:url(#Arrow1Lend)"
       d="m 130,337.36218 145,0"
       id="path3546"
       inkscape:connector-curvature="0"
       sodipodi:nodetypes="cc" />
    <path
       style="fill:none;stroke:#000000;stroke-width:1px;stroke-linecap:butt;stroke-linejoin:miter;stroke-opacity:1;marker-end:url(#Arrow1Lend)"
       d="m 365,337.36218 125,-120"
       id="path3546-5"
       inkscape:connector-curvature="0"
       sodipodi:nodetypes="cc" />
    <path
       style="fill:none;stroke:#000000;stroke-width:1px;stroke-linecap:butt;stroke-linejoin:miter;stroke-opacity:1;marker-end:url(#Arrow1Lend)"
       d="M 365,337.36218 488.92857,297.71932"
       id="path3546-5-1"
       inkscape:connector-curvature="0"
       sodipodi:nodetypes="cc" />
    <path
       style="fill:none;stroke:#000000;stroke-width:1px;stroke-linecap:butt;stroke-linejoin:miter;stroke-opacity:1;marker-end:url(#Arrow1Lend)"
       d="m 365,337.36218 124.28572,56.42857"
       id="path3546-5-1-9"
       inkscape:connector-curvature="0"
       sodipodi:nodetypes="cc" />
    <path
       style="fill:none;stroke:#000000;stroke-width:1px;stroke-linecap:butt;stroke-linejoin:miter;stroke-opacity:1;marker-end:url(#Arrow1Lend)"
       d="m 365,337.36218 123.57143,125"
       id="path3546-5-1-9-0"
       inkscape:connector-curvature="0"
       sodipodi:nodetypes="cc" />
    <text
       xml:space="preserve"
       style="font-size:40px;font-style:normal;font-weight:normal;line-height:125%;letter-spacing:0px;word-spacing:0px;fill:#000000;fill-opacity:1;stroke:none;font-family:Sans;-inkscape-font-specification:Sans"
       x="130"
       y="372.36218"
       id="text5940"
       sodipodi:linespacing="125%"><tspan
         sodipodi:role="line"
         id="tspan5942"
         x="130"
         y="372.36218"
         style="font-size:28px">https/</tspan><tspan
         sodipodi:role="line"
         x="130"
         y="407.36218"
         style="font-size:28px"
         id="tspan5944">websocket</tspan></text>
    <text
       xml:space="preserve"
       style="font-size:28px;font-style:normal;font-weight:normal;line-height:125%;letter-spacing:0px;word-spacing:0px;fill:#000000;fill-opacity:1;stroke:none;font-family:Sans;-inkscape-font-specification:Sans"
       x="382.57144"
       y="446.21933"
       id="text5946"
       sodipodi:linespacing="125%"><tspan
         sodipodi:role="line"
         id="tspan5948"
         x="382.57144"
         y="446.21933">ZMQ</tspan></text>
    <rect
       style="fill:none;stroke:#ff6600;stroke-width:1.7544508;stroke-miterlimit:4;stroke-opacity:1;stroke-dasharray:none;stroke-dashoffset:0"
       id="rect5950"
       width="391.29715"
       height="354.61987"
       x="283.10248"
       y="156.82944" />
    <g
       figma:type="canvas"
       transform="matrix(2.4427181,0,0,2.4427181,-3696.5742,-5829.1704)"
       id="Canvas-8">
      <g
         figma:type="group"
         id="Group-52">
        <g
           figma:type="group"
           id="g7439">
          <g
             figma:type="group"
             id="g7441">
            <g
               figma:type="group"
               id="g-1">
              <g
                 figma:type="group"
                 id="path-99">
                <g
                   figma:type="vector"
                   id="path9 fill-60">
                  <use
                     id="use7446"
                     style="fill:#4e4e4e"
                     transform="translate(1640.54,2474.36)"
                     xlink:href="#path0_fill"
                     x="0"
                     y="0"
                     width="1"
                     height="1" />
                </g>
              </g>
              <g
                 figma:type="group"
                 id="g7448">
                <g
                   figma:type="vector"
                   id="path10 fill-6">
                  <use
                     id="use7451"
                     style="fill:#4e4e4e"
                     transform="translate(1645.68,2474.37)"
                     xlink:href="#path1_fill"
                     x="0"
                     y="0"
                     width="1"
                     height="1" />
                </g>
              </g>
              <g
                 figma:type="group"
                 id="g7453">
                <g
                   figma:type="vector"
                   id="path11 fill-49">
                  <use
                     id="use7456"
                     style="fill:#4e4e4e"
                     transform="translate(1653.39,2474.26)"
                     xlink:href="#path2_fill"
                     x="0"
                     y="0"
                     width="1"
                     height="1" />
                </g>
              </g>
              <g
                 figma:type="group"
                 id="g7458">
                <g
                   figma:type="vector"
                   id="path12 fill-90">
                  <use
                     id="use7461"
                     style="fill:#4e4e4e"
                     transform="translate(1660.43,2474.39)"
                     xlink:href="#path3_fill"
                     x="0"
                     y="0"
                     width="1"
                     height="1" />
                </g>
              </g>
              <g
                 figma:type="group"
                 id="g7463">
                <g
                   figma:type="vector"
                   id="path13 fill-8">
                  <use
                     id="use7466"
                     style="fill:#4e4e4e"
                     transform="translate(1667.55,2472.54)"
                     xlink:href="#path4_fill"
                     x="0"
                     y="0"
                     width="1"
                     height="1" />
                </g>
              </g>
              <g
                 figma:type="group"
                 id="g7468">
                <g
                   figma:type="vector"
                   id="path14 fill-93">
                  <use
                     id="use7471"
                     style="fill:#4e4e4e"
                     transform="translate(1672.47,2474.29)"
                     xlink:href="#path5_fill"
                     x="0"
                     y="0"
                     width="1"
                     height="1" />
                </g>
              </g>
              <g
                 figma:type="group"
                 id="g7473">
                <g
                   figma:type="vector"
                   id="path15 fill-1">
                  <use
                     id="use7476"
                     style="fill:#4e4e4e"
                     transform="translate(1679.98,2474.24)"
                     xlink:href="#path6_fill"
                     x="0"
                     y="0"
                     width="1"
                     height="1" />
                </g>
              </g>
            </g>
          </g>
          <g
             figma:type="group"
             id="g7478">
            <g
               figma:type="group"
               id="g7480">
              <g
                 figma:type="vector"
                 id="path16 fill-48">
                <use
                   id="use7483"
                   style="fill:#767677"
                   transform="translate(1673.48,2453.69)"
                   xlink:href="#path7_fill"
                   x="0"
                   y="0"
                   width="1"
                   height="1" />
              </g>
            </g>
            <g
               figma:type="group"
               id="g7485">
              <g
                 figma:type="vector"
                 id="path17 fill-96">
                <use
                   id="use7488"
                   style="fill:#f37726"
                   transform="translate(1643.21,2484.27)"
                   xlink:href="#path8_fill"
                   x="0"
                   y="0"
                   width="1"
                   height="1" />
              </g>
            </g>
            <g
               figma:type="group"
               id="g7490">
              <g
                 figma:type="vector"
                 id="path18 fill-7">
                <use
                   id="use7493"
                   style="fill:#f37726"
                   transform="translate(1643.21,2457.88)"
                   xlink:href="#path9_fill"
                   x="0"
                   y="0"
                   width="1"
                   height="1" />
              </g>
            </g>
            <g
               figma:type="group"
               id="g7495">
              <g
                 figma:type="vector"
                 id="path19 fill-73">
                <use
                   id="use7498"
                   style="fill:#9e9e9e"
                   transform="translate(1643.28,2496.09)"
                   xlink:href="#path10_fill"
                   x="0"
                   y="0"
                   width="1"
                   height="1" />
              </g>
            </g>
            <g
               figma:type="group"
               id="g7500">
              <g
                 figma:type="vector"
                 id="path20 fill-7">
                <use
                   id="use7503"
                   style="fill:#616262"
                   transform="translate(1641.87,2458.43)"
                   xlink:href="#path11_fill"
                   x="0"
                   y="0"
                   width="1"
                   height="1" />
              </g>
            </g>
          </g>
        </g>
      </g>
    </g>
    <g
       transform="translate(512.33732,580.54479)"
       id="g3026">
      <rect
         x="7.7378001"
         y="42.43"
         width="32.507999"
         height="3.5701001"
         style="opacity:0.3;fill:url(#linearGradient2456)"
         id="rect2879" />
      <path
         inkscape:connector-curvature="0"
         d="m 7.7378,42.43 v 3.5699 c -1.1865,0.0067 -2.8684,-0.79982 -2.8684,-1.7852 0,-0.98533 1.324,-1.7847 2.8684,-1.7847 z"
         style="opacity:0.3;fill:url(#radialGradient2453)"
         id="path2881" />
      <path
         inkscape:connector-curvature="0"
         d="m 40.246,42.43 v 3.5699 c 1.1865,0.0067 2.8684,-0.79982 2.8684,-1.7852 0,-0.98533 -1.324,-1.7847 -2.8684,-1.7847 z"
         style="opacity:0.3;fill:url(#radialGradient2450)"
         id="path2883" />
      <path
         inkscape:connector-curvature="0"
         d="m 6.5,0.4972 h 24.061 c 1.4069,0.47465 8.9655,5.8822 10.939,9.6264 v 34.379 H 6.5 V 0.4966 z"
         style="fill:url(#linearGradient2445);stroke:url(#linearGradient2447);stroke-width:0.99992001;stroke-linejoin:round"
         id="path4160" />
      <path
         inkscape:connector-curvature="0"
         d="M 7.3617,44 C 7.1624,44 7,43.82454 7,43.60922 V 1.40522 C 7,1.18951 7.1624,1.01444 7.3617,1.01444 c 7.4833,0.1082 15.775,-0.16138 23.249,0.0271 l 10.283,8.866 0.106,33.702 c 0,0.216 -0.162,0.391 -0.362,0.391 H 7.3617 z"
         style="fill:url(#radialGradient2442)"
         id="path4191" />
      <path
         inkscape:connector-curvature="0"
         d="M 40.5,10.259 V 43.522 H 7.5 V 1.477 h 22.866"
         style="opacity:0.6;fill:none;stroke:url(#linearGradient2439);stroke-width:0.99992001;stroke-linejoin:round"
         id="path2435" />
      <path
         inkscape:connector-curvature="0"
         d="m 11,22 h 2.3458 v 1 h -2.346 v -1 z m 2.6654,0 h 2.2134 v 1 h -2.2134 v -1 z m 2.5329,0 h 1.9485 v 1 h -1.9485 v -1 z m 2.2681,0 h 0.85587 v 1 H 18.4664 v -1 z m 1.1754,0 h 1.9154 v 1 h -1.9154 v -1 z m 2.2349,0 h 4.9616 v 1 h -4.9616 v -1 z m 5.2811,0 h 3.7696 v 1 h -3.7696 v -1 z m 4.0891,0 h 1.1539 v 1 h -1.1539 v -1 z m 1.474,0 h 2.28 v 1 h -2.2796 v -1 z m -21.72,6 h 3.6918 v 1 h -3.692 v -1 z m 3.9658,0 h 1.7762 v 1 h -1.7762 v -1 z m 2.1509,0 h 0.83512 v 1 H 17.1176 v -1 z m 1.0419,0 h 1.6081 v 1 h -1.6081 v -1 z m 1.882,0 h 1.6081 v 1 h -1.6081 v -1 z m 2.1173,0 h 2.5827 v 1 h -2.5827 v -1 z m 2.8903,0 h 3.3893 v 1 h -3.3893 v -1 z m 3.8649,0 h 2.2803 v 1 H 28.914 v -1 z m 2.554,0 h 0.533 v 1 H 31.46834 V 28 z M 11.001,24 h 3.928 v 1 h -3.928 v -1 z m 4.236,0 h 4.2089 v 1 H 15.237 v -1 z m 4.5169,0 h 1.6808 v 1 h -1.6808 v -1 z m 1.9887,0 h 3.9593 v 1 h -3.9593 v -1 z m 7.2859,0 h 1.0565 v 1 h -1.0565 v -1 z m -3.0187,0 h 2.7108 v 1 h -2.7108 v -1 z m 4.3831,0 h 0.61953 v 1 H 30.3929 v -1 z m 0.927,0 h 1.681 v 1 h -1.6808 v -1 z m -20.319,2 h 4.2851 v 1 h -4.285 v -1 z m 4.6211,0 h 4.5916 v 1 H 15.622 v -1 z m 4.9275,0 h 1.8336 v 1 h -1.8336 v -1 z m 2.1695,0 h 4.3192 v 1 H 22.719 v -1 z m 7.9482,0 h 1.1526 v 1 h -1.1526 v -1 z m -3.2931,0 h 2.9572 v 1 h -2.9572 v -1 z m 4.7816,0 h 0.67585 v 1 H 32.1557 v -1 z m 1.011,0 h 1.834 v 1 h -1.8336 v -1 z m -22.166,-6 h 3.0616 v 1 h -3.062 v -1 z m 3.3868,0 h 5.0835 v 1 h -5.0835 v -1 z m 5.4088,0 h 2.455 v 1 h -2.455 v -1 z m 5.3919,0 h 1.9495 v 1 h -1.9495 v -1 z m 2.2747,0 h 3.129 v 1 h -3.129 v -1 z m 3.453,0 h 5.084 v 1 h -5.0836 v -1 z m -8.3406,0 h 2.2865 v 1 H 22.5753 V 20 z M 11.0003,8 h 2.3458 v 1 h -2.346 V 8 z m 2.6654,0 h 2.2134 V 9 H 13.6657 V 8 z m 2.5329,0 h 1.9485 V 9 H 16.1986 V 8 z m 2.2681,0 h 0.85587 V 9 H 18.4667 V 8 z m 1.1754,0 h 1.9154 V 9 H 19.6421 V 8 z m 2.2349,0 h 4.9616 V 9 H 21.877 V 8 z m 5.2811,0 h 3.7696 V 9 H 27.1581 V 8 z m 4.0891,0 h 1.1539 V 9 H 31.2472 V 8 z m 1.4734,0 h 2.2796 l 10e-4,1 H 32.7216 V 8 z m -21.719,2 h 3.6918 v 1 h -3.692 v -1 z m 4.0288,0 h 1.7762 v 1 h -1.7762 v -1 z m 2.1131,0 h 0.83512 v 1 H 17.1435 v -1 z m 1.1721,0 h 1.6081 v 1 h -1.6081 v -1 z m 1.9451,0 h 1.6081 v 1 h -1.6081 v -1 z m 1.9451,0 h 2.5827 v 1 h -2.5827 v -1 z m 2.9197,0 h 3.3894 v 1 h -3.3894 v -1 z m 3.7263,0 h 2.2803 v 1 h -2.2803 v -1 z m 2.617,0 h 0.533 v 1 h -0.53265 v -1 z m -20.467,4 h 4.2851 v 1 h -4.285 v -1 z m 4.6211,0 h 4.5916 v 1 h -4.5916 v -1 z m 4.9275,0 h 1.8336 v 1 h -1.8336 v -1 z m 2.1695,0 h 4.3192 v 1 h -4.3192 v -1 z m 7.9482,0 h 1.1526 v 1 h -1.1526 v -1 z m -3.2931,0 h 2.9572 v 1 H 27.375 v -1 z m 4.7816,0 h 0.67585 v 1 H 32.1566 v -1 z m 1.011,0 h 1.834 v 1 H 33.168 v -1 z m -22.166,-2 h 3.0616 v 1 h -3.062 v -1 z m 3.3868,0 h 5.0835 v 1 h -5.0835 v -1 z m 5.4088,0 h 2.455 v 1 h -2.455 v -1 z m 5.3919,0 h 1.9495 v 1 h -1.9495 v -1 z m 2.2747,0 h 3.129 v 1 h -3.129 v -1 z m 3.453,0 h 5.084 v 1 h -5.0836 v -1 z m -8.3406,0 h 2.2865 v 1 h -2.2865 v -1 z m -11.575,4 h 1.6334 v 1 h -1.633 v -1 z m 2.056,0 h 5.944 v 1 h -5.9439 v -1 z m -2.056,18 h 3.6918 v 1 h -3.692 v -1 z m 3.9658,0 h 1.7762 v 1 H 14.967 v -1 z m 2.1509,0 h 0.83512 v 1 H 17.1179 v -1 z m 1.0419,0 h 1.6081 v 1 h -1.6081 v -1 z m 1.882,0 h 1.6081 v 1 h -1.6081 v -1 z m 2.1173,0 h 2.5827 v 1 h -2.5827 v -1 z m 2.8903,0 h 3.3893 v 1 h -3.3893 v -1 z m 3.8649,0 h 2.2803 v 1 h -2.2803 v -1 z m 2.554,0 h 0.533 v 1 h -0.53266 v -1 z m -20.467,-2 h 3.0616 v 1 h -3.062 v -1 z m 3.3868,0 h 5.0835 v 1 h -5.0835 v -1 z m 5.4088,0 h 2.455 v 1 h -2.455 v -1 z m 5.3919,0 h 1.9495 v 1 h -1.9495 v -1 z m 2.2747,0 h 3.129 v 1 h -3.129 v -1 z m 3.453,0 h 5.084 v 1 h -5.0836 v -1 z m -8.3406,0 h 2.2865 v 1 h -2.2865 v -1 z m -11.575,4 h 3.8687 v 1 h -3.869 v -1 z m 4.1882,0 h 1.2182 v 1 h -1.2182 v -1 z m 1.5376,0 h 2.7813 v 1 h -2.7813 v -1 z m 3.1008,0 h 1.8978 v 1 h -1.8978 v -1 z m 2.2173,0 h 1.8978 v 1 h -1.8978 v -1 z m 2.2173,0 h 2.7473 v 1 h -2.7473 v -1 z m 3.0668,0 h 0.57256 v 1 H 27.3289 v -1 z m 0.89201,0 h 3.5629 v 1 h -3.5629 v -1 z m 3.882,0 h 1.898 v 1 h -1.8978 v -1 z m -21.102,2 h 3.7964 v 1 h -3.796 v -1 z m 6.2567,0 h 2.4387 v 1 h -2.4387 v -1 z m 2.7889,0 h 2.2351 v 1 h -2.2351 v -1 z m 5.99,0 h 1.964 v 1 h -1.9635 v -1 z m -1.1257,0 h 0.77554 v 1 h -0.77554 v -1 z m -2.2798,0 h 1.9296 v 1 h -1.9296 v -1 z m -7.4843,0 h 1.7599 v 1 h -1.7599 v -1 z"
         style="opacity:0.7;fill:url(#linearGradient2436)"
         id="path3406" />
      <path
         inkscape:connector-curvature="0"
         d="m 28.617,0.92126 c 4.2825,0 2.1532,8.4832 2.1532,8.4832 0,0 10.358,-1.8023 10.358,2.8187 0,-2.6097 -11.302,-10.729 -12.511,-11.302 z"
         style="opacity:0.4;fill-rule:evenodd;filter:url(#filter3248)"
         id="path12038" />
      <path
         inkscape:connector-curvature="0"
         d="m 28.617,0.92126 c 3.1865,0 2.3358,7.6619 2.3358,7.6619 0,0 10.175,-0.98105 10.175,3.64 0,-1.1259 0.08591,-1.9322 -0.13378,-2.2836 -1.578,-2.5243 -8.395,-8.1885 -10.857,-8.9309 -0.184,-0.05556 -0.593,-0.08754 -1.52,-0.08754 z"
         style="fill:url(#linearGradient3097);fill-rule:evenodd"
         id="path4474" />
    </g>
    <path
       style="fill:none;stroke:#000000;stroke-width:1px;stroke-linecap:butt;stroke-linejoin:miter;stroke-opacity:1;marker-end:url(#Arrow1Lend)"
       d="m 535,572.36219 0,-80"
       id="path3546-1"
       inkscape:connector-curvature="0"
       sodipodi:nodetypes="cc" />
    <text
       xml:space="preserve"
       style="font-size:28px;font-style:normal;font-weight:normal;line-height:125%;letter-spacing:0px;word-spacing:0px;fill:#000000;fill-opacity:1;stroke:none;font-family:Sans;-inkscape-font-specification:Sans"
       x="565"
       y="612.36218"
       id="text5946-3"
       sodipodi:linespacing="125%"><tspan
         sodipodi:role="line"
         id="tspan5948-7"
         x="565"
         y="612.36218">Datasets</tspan></text>
    <path
       style="fill:none;stroke:#000000;stroke-width:1px;stroke-linecap:butt;stroke-linejoin:miter;stroke-opacity:1;marker-end:url(#Arrow1Lend)"
       d="m 544.57687,491.11732 0,80"
       id="path3546-1-3"
       inkscape:connector-curvature="0"
       sodipodi:nodetypes="cc" />
  </g>
</svg>
